<?xml version="1.0" encoding="UTF-8"?>
<svg version="1.1" xmlns="http://www.w3.org/2000/svg" width="500" height="500">
<path d="M0 0 C0.87454834 0.00523682 1.74909668 0.01047363 2.65014648 0.01586914 C3.59438477 0.0190918 4.53862305 0.02231445 5.51147461 0.02563477 C6.50469727 0.03401367 7.49791992 0.04239258 8.52124023 0.05102539 C9.51833008 0.05553711 10.51541992 0.06004883 11.54272461 0.06469727 C14.01478872 0.07652532 16.48673541 0.0930069 18.95874023 0.11352539 C20.08591111 5.32447183 19.98974951 10.22487294 19.89624023 15.54321289 C19.95934053 19.14781731 20.37692743 22.55901279 20.95874023 26.11352539 C23.04368116 23.71908696 25.12639877 21.32272461 27.20874023 18.92602539 C27.79526367 18.25249023 28.38178711 17.57895508 28.98608398 16.88500977 C31.48365855 14.00858962 33.93302797 11.14697758 36.25561523 8.12524414 C36.81764648 7.46137695 37.37967773 6.79750977 37.95874023 6.11352539 C38.61874023 6.11352539 39.27874023 6.11352539 39.95874023 6.11352539 C40.39186523 5.18540039 40.39186523 5.18540039 40.83374023 4.23852539 C41.95874023 2.11352539 41.95874023 2.11352539 43.95874023 0.11352539 C46.29711914 -0.11352539 46.29711914 -0.11352539 49.18530273 -0.08178711 C50.73217773 -0.07211914 50.73217773 -0.07211914 52.31030273 -0.06225586 C53.9306543 -0.03711914 53.9306543 -0.03711914 55.58374023 -0.01147461 C56.67170898 -0.00245117 57.75967773 0.00657227 58.88061523 0.01586914 C61.57354175 0.0394913 64.26603279 0.07242983 66.95874023 0.11352539 C67.45374023 1.10352539 67.45374023 1.10352539 67.95874023 2.11352539 C66.50801777 4.11946263 65.04882995 6.11812713 63.58374023 8.11352539 C63.17124023 8.68586914 62.75874023 9.25821289 62.33374023 9.84790039 C61.25702305 11.30667851 60.11207445 12.71453515 58.95874023 14.11352539 C58.29874023 14.11352539 57.63874023 14.11352539 56.95874023 14.11352539 C56.73186523 14.66137695 56.50499023 15.20922852 56.27124023 15.77368164 C53.97699616 19.86371794 50.49688479 22.98863304 47.27124023 26.35961914 C45.0416431 29.01479816 43.63680554 30.71781738 42.95874023 34.11352539 C44.09890016 36.72279082 44.09890016 36.72279082 46.08374023 39.11352539 C46.73729492 39.97977539 47.39084961 40.84602539 48.06420898 41.73852539 C49.49919126 43.537431 50.94515966 45.32758007 52.39624023 47.11352539 C53.95874023 49.11352539 53.95874023 49.11352539 53.95874023 51.11352539 C54.61874023 51.11352539 55.27874023 51.11352539 55.95874023 51.11352539 C57.59303774 53.20802219 59.10041258 55.2913463 60.58374023 57.48852539 C61.00397461 58.09180664 61.42420898 58.69508789 61.85717773 59.31665039 C64.95874023 63.84815404 64.95874023 63.84815404 64.95874023 66.11352539 C65.61874023 66.11352539 66.27874023 66.11352539 66.95874023 66.11352539 C69.00043508 69.01901421 69.95874023 70.51494585 69.95874023 74.11352539 C66.08452323 74.31769133 62.21169431 74.44144076 58.33374023 74.55102539 C56.69211914 74.63900391 56.69211914 74.63900391 55.01733398 74.72875977 C47.04741028 74.89781875 47.04741028 74.89781875 43.97827148 72.68676758 C42.4464327 70.90634092 41.19555833 69.10735689 39.95874023 67.11352539 C39.28327148 66.29625977 38.60780273 65.47899414 37.91186523 64.63696289 C37.34983398 63.92797852 36.78780273 63.21899414 36.20874023 62.48852539 C35.63639648 61.77438477 35.06405273 61.06024414 34.47436523 60.32446289 C32.88246236 58.00225405 31.90494193 55.75732424 30.95874023 53.11352539 C30.29874023 53.11352539 29.63874023 53.11352539 28.95874023 53.11352539 C27.33374023 51.11352539 27.33374023 51.11352539 25.95874023 49.11352539 C21.66795398 52.504758 21.66795398 52.504758 19.38598633 57.2800293 C19.18288348 59.67644137 19.1250275 62.0212731 19.14624023 64.42602539 C19.01786186 73.05440377 19.01786186 73.05440377 17.95874023 74.11352539 C16.47002164 74.20021971 14.97729524 74.22056033 13.48608398 74.21118164 C12.58696289 74.20795898 11.6878418 74.20473633 10.76147461 74.20141602 C9.34318359 74.18884766 9.34318359 74.18884766 7.89624023 74.17602539 C6.9468457 74.17151367 5.99745117 74.16700195 5.01928711 74.16235352 C2.66570654 74.15052648 0.31226442 74.13320633 -2.04125977 74.11352539 C-3.1363514 66.15752697 -3.18756513 58.29000596 -3.17407227 50.26977539 C-3.174747 48.85013818 -3.17571844 47.43050108 -3.17697144 46.01086426 C-3.17843657 43.05581548 -3.17632963 40.10079716 -3.17163086 37.14575195 C-3.16589223 33.35148999 -3.16924591 29.55729812 -3.17520332 25.76303864 C-3.17880542 22.84122177 -3.17767271 19.91942173 -3.17507553 16.99760437 C-3.17440744 15.59730521 -3.17523057 14.19700454 -3.17755508 12.79670715 C-3.18008029 10.85088122 -3.1755525 8.90504992 -3.1706543 6.95922852 C-3.1698587 5.85164185 -3.16906311 4.74405518 -3.16824341 3.60290527 C-2.99294951 0.16645396 -2.99294951 0.16645396 0 0 Z " fill="#D6D5D5" transform="translate(105.041259765625,196.886474609375)"/>
<path d="M0 0 C4.79052826 3.90436827 9.12537941 8.45436038 10.11523438 14.76806641 C10.23487323 17.36845983 10.23415074 19.94032359 10.18359375 22.54296875 C10.18030563 23.48512238 10.17701752 24.427276 10.17362976 25.39797974 C10.1632553 27.3763934 10.14338476 29.35477778 10.11450195 31.33300781 C10.07014865 34.37451739 10.05302013 37.41523722 10.04101562 40.45703125 C10.02760234 42.38152193 10.01268237 44.30600282 9.99609375 46.23046875 C9.98870682 47.14392059 9.98131989 48.05737244 9.97370911 48.99850464 C9.8761468 55.36994695 9.8761468 55.36994695 8.7578125 56.48828125 C5.93524759 56.58835133 3.1425806 56.62703723 0.3203125 56.61328125 C-0.46923828 56.61714844 -1.25878906 56.62101562 -2.07226562 56.625 C-7.98892617 56.61491192 -7.98892617 56.61491192 -10.2421875 55.48828125 C-10.5721875 54.49828125 -10.9021875 53.50828125 -11.2421875 52.48828125 C-11.9846875 53.12765625 -12.7271875 53.76703125 -13.4921875 54.42578125 C-18.5666152 58.23160203 -24.09417861 57.97203016 -30.2421875 57.48828125 C-36.59366819 56.32093241 -41.14732733 54.73482084 -45.2421875 49.48828125 C-48.62555467 44.15436077 -47.92387191 37.53910888 -47.2421875 31.48828125 C-45.18678899 26.64530363 -40.97321975 24.4008262 -36.2421875 22.48828125 C-33.29426591 21.62153734 -30.54267406 21.30945693 -27.4765625 21.171875 C-26.58710938 21.12998047 -25.69765625 21.08808594 -24.78125 21.04492188 C-23.86085937 21.00560547 -22.94046875 20.96628906 -21.9921875 20.92578125 C-21.05632812 20.88259766 -20.12046875 20.83941406 -19.15625 20.79492188 C-16.85170109 20.68910075 -14.54704911 20.58701568 -12.2421875 20.48828125 C-15.5177253 16.61436942 -15.5177253 16.61436942 -20.14453125 14.9296875 C-25.57100448 15.14618772 -30.13129913 15.49378823 -35.2421875 17.48828125 C-36.90839435 17.52742855 -38.57611509 17.53278402 -40.2421875 17.48828125 C-46.16811343 6.77928654 -46.16811343 6.77928654 -45.2421875 1.48828125 C-35.73457457 -8.01933168 -10.36799621 -6.99026922 0 0 Z M-26.2421875 34.48828125 C-27.32243408 36.88938342 -27.32243408 36.88938342 -27.2421875 39.48828125 C-26.2521875 40.97328125 -26.2521875 40.97328125 -25.2421875 42.48828125 C-22.91122632 42.92875262 -22.91122632 42.92875262 -20.3046875 42.80078125 C-19.42941406 42.79691406 -18.55414063 42.79304688 -17.65234375 42.7890625 C-14.98270903 42.63841206 -14.98270903 42.63841206 -12.2421875 40.48828125 C-11.87920814 38.51081003 -11.87920814 38.51081003 -12.0546875 36.36328125 C-12.1165625 35.08453125 -12.1784375 33.80578125 -12.2421875 32.48828125 C-19.5611775 32.00941179 -19.5611775 32.00941179 -26.2421875 34.48828125 Z " fill="#7F7F7E" transform="translate(222.2421875,214.51171875)"/>
<path d="M0 0 C4.56609785 4.64074796 6.55586124 10.24076605 6.56298828 16.65893555 C6.56614044 17.47625656 6.5692926 18.29357758 6.57254028 19.13566589 C6.57051605 20.00870865 6.56849182 20.8817514 6.56640625 21.78125 C6.56736298 22.68325638 6.5683197 23.58526276 6.56930542 24.51460266 C6.56998485 26.41671824 6.56814708 28.31883616 6.56396484 30.22094727 C6.55859455 33.14409531 6.56392741 36.06709099 6.5703125 38.99023438 C6.56965204 40.83723992 6.56837156 42.68424538 6.56640625 44.53125 C6.56843048 45.41036545 6.57045471 46.2894809 6.57254028 47.19523621 C6.54855631 53.34206869 6.54855631 53.34206869 5.43359375 54.45703125 C2.44179652 54.61030559 -0.51096949 54.68868374 -3.50390625 54.70703125 C-4.34115234 54.72765625 -5.17839844 54.74828125 -6.04101562 54.76953125 C-6.84216797 54.7746875 -7.64332031 54.77984375 -8.46875 54.78515625 C-9.57464478 54.7991748 -9.57464478 54.7991748 -10.70288086 54.81347656 C-11.31784424 54.69584961 -11.93280762 54.57822266 -12.56640625 54.45703125 C-13.22640625 53.46703125 -13.88640625 52.47703125 -14.56640625 51.45703125 C-15.28828125 51.93140625 -16.01015625 52.40578125 -16.75390625 52.89453125 C-23.29776767 56.53000982 -31.42331782 56.30735594 -38.54296875 54.3515625 C-43.1010786 52.33649077 -47.09733977 48.75809331 -49.7734375 44.56640625 C-51.75221805 39.30265504 -51.18006751 33.23341912 -49.37890625 28.01953125 C-45.74114662 22.87649177 -41.6905128 20.59232792 -35.56640625 19.45703125 C-32.08164743 19.23126403 -28.6190052 19.26670182 -25.12890625 19.33203125 C-24.20658203 19.34105469 -23.28425781 19.35007813 -22.33398438 19.359375 C-20.07784816 19.38275465 -17.82226941 19.41552209 -15.56640625 19.45703125 C-16.3091989 16.97130824 -16.3091989 16.97130824 -17.56640625 14.45703125 C-25.19192642 11.51384803 -32.13380074 12.27162889 -39.56640625 15.45703125 C-40.88640625 15.45703125 -42.20640625 15.45703125 -43.56640625 15.45703125 C-46.0110256 11.09923155 -47.18964074 7.44917424 -47.56640625 2.45703125 C-46.37490218 -1.11748097 -44.95608059 -1.90284704 -41.703125 -3.625 C-29.16409572 -9.0119687 -10.97249102 -8.7095792 0 0 Z M-29.56640625 33.45703125 C-29.81648355 35.91513123 -29.81648355 35.91513123 -29.56640625 38.45703125 C-27.15153682 40.87190068 -26.43932836 40.75322375 -23.12890625 40.76953125 C-22.34644531 40.78628906 -21.56398438 40.80304688 -20.7578125 40.8203125 C-18.03345208 40.36868056 -17.18919121 39.66442197 -15.56640625 37.45703125 C-14.83598772 33.84680026 -14.83598772 33.84680026 -14.56640625 30.45703125 C-22.61417988 30.06021186 -22.61417988 30.06021186 -29.56640625 33.45703125 Z " fill="#717170" transform="translate(393.56640625,216.54296875)"/>
<path d="M0 0 C0.66 0 1.32 0 2 0 C1.55946315 4.84590538 -0.74505877 8.48141867 -4 12 C-4.66 12 -5.32 12 -6 12 C-6.27779297 12.5887793 -6.55558594 13.17755859 -6.84179688 13.78417969 C-8.65418365 17.25155371 -11.08753127 20.18298549 -13.5 23.25 C-14.24830078 24.22453125 -14.24830078 24.22453125 -15.01171875 25.21875 C-16.29184193 26.85236564 -17.64105599 28.43134241 -19 30 C-19.66 30 -20.32 30 -21 30 C-21 30.66 -21 31.32 -21 32 C-21.66 32 -22.32 32 -23 32 C-23.33 33.32 -23.66 34.64 -24 36 C-24.66 36 -25.32 36 -26 36 C-26.226875 36.70125 -26.45375 37.4025 -26.6875 38.125 C-28.6648138 42.45625879 -31.66298727 45.7035028 -35.0625 49 C-37.43191199 51.44584463 -39.1755585 54.1330205 -41 57 C-40.01 57.495 -40.01 57.495 -39 58 C-39.33 59.98 -39.66 61.96 -40 64 C-44.75 65.125 -44.75 65.125 -47 64 C-47.66 65.98 -48.32 67.96 -49 70 C-47.11174817 72.20296047 -45.68913312 73.14248065 -43 74.375 C-38.69040504 76.70936394 -37.51058935 79.46823194 -36 84 C-35.33426326 89.53325456 -35.78210163 94.31356897 -38.54296875 99.2109375 C-42.85807268 104.50937611 -50.36752027 107.24413152 -57 108 C-64.74705388 108.39620406 -71.61459869 108.39526529 -79 106 C-78.67 104.68 -78.34 103.36 -78 102 C-77.34 102 -76.68 102 -76 102 C-75.7525 101.443125 -75.505 100.88625 -75.25 100.3125 C-71.68844221 93.72361809 -71.68844221 93.72361809 -68.25 92.25 C-67.5075 92.1675 -66.765 92.085 -66 92 C-65.3296875 91.91105469 -64.659375 91.82210937 -63.96875 91.73046875 C-61.98157118 91.46807718 -59.99092381 91.23227444 -58 91 C-58 89.68 -58 88.36 -58 87 C-58.99 86.505 -58.99 86.505 -60 86 C-59.65986985 80.55791766 -56.29703472 77.06331802 -53 73 C-57.14670039 75.37629089 -57.14670039 75.37629089 -60 79 C-60.66 79 -61.32 79 -62 79 C-62.66 80.65 -63.32 82.3 -64 84 C-64.66 84 -65.32 84 -66 84 C-66.268125 84.5775 -66.53625 85.155 -66.8125 85.75 C-68.02929189 88.05550043 -69.30333879 90.02056192 -71 92 C-71.66 92 -72.32 92 -73 92 C-73 92.66 -73 93.32 -73 94 C-73.66 94 -74.32 94 -75 94 C-75.25394531 94.57234375 -75.50789063 95.1446875 -75.76953125 95.734375 C-77.14442921 98.26593314 -78.74317786 100.12614321 -80.6875 102.25 C-81.75677734 103.42949219 -81.75677734 103.42949219 -82.84765625 104.6328125 C-83.91306641 105.80457031 -83.91306641 105.80457031 -85 107 C-86.21217963 108.37161036 -87.42075345 109.74641932 -88.625 111.125 C-89.18960938 111.76695312 -89.75421875 112.40890625 -90.3359375 113.0703125 C-91.46605916 114.38082917 -92.57494105 115.70990374 -93.6640625 117.0546875 C-94.18742188 117.69664062 -94.71078125 118.33859375 -95.25 119 C-95.70890625 119.5775 -96.1678125 120.155 -96.640625 120.75 C-98 122 -98 122 -101 122 C-100.40683971 118.0942676 -98.51378095 115.78196414 -96.0625 112.75 C-95.35222656 111.85796875 -94.64195312 110.9659375 -93.91015625 110.046875 C-93.27980469 109.37140625 -92.64945313 108.6959375 -92 108 C-91.34 108 -90.68 108 -90 108 C-89.75378906 107.27941406 -89.50757813 106.55882812 -89.25390625 105.81640625 C-87.444714 101.75276883 -84.64421696 98.766902 -81.77734375 95.40234375 C-80.10626517 93.14363315 -79.41108784 91.73847748 -79 89 C-78.34 89 -77.68 89 -77 89 C-76.7525 88.4225 -76.505 87.845 -76.25 87.25 C-74.81918632 84.67453538 -73.11081119 83.04872851 -71 81 C-68.66954393 78.27003717 -67.13897735 76.41693206 -66 73 C-69.50348759 74.4073206 -70.717859 75.80472429 -72.4375 79.125 C-74.69186793 82.90519013 -74.69186793 82.90519013 -77.4375 83.75 C-83.56985408 81.95516466 -86.87772764 78.4350667 -90 73 C-91.75141462 67.74575615 -91.70791687 62.95573723 -89.5625 57.875 C-86.52804905 52.44717928 -81.62621798 49.43122076 -75.94140625 47.1875 C-66.65192803 44.65879515 -55.53853457 44.34261751 -47 49 C-43.88012332 49.34807292 -43.88012332 49.34807292 -41.9375 47 C-41.298125 46.34 -40.65875 45.68 -40 45 C-39.34 45 -38.68 45 -38 45 C-37.7421875 44.43796875 -37.484375 43.8759375 -37.21875 43.296875 C-35.85830223 40.73295421 -34.27211038 38.54773635 -32.5 36.25 C-31.8915625 35.45078125 -31.283125 34.6515625 -30.65625 33.828125 C-30.1096875 33.22484375 -29.563125 32.6215625 -29 32 C-28.34 32 -27.68 32 -27 32 C-27 31.34 -27 30.68 -27 30 C-26.34 30 -25.68 30 -25 30 C-24.7421875 29.43796875 -24.484375 28.8759375 -24.21875 28.296875 C-22.85830223 25.73295421 -21.27211038 23.54773635 -19.5 21.25 C-18.8915625 20.45078125 -18.283125 19.6515625 -17.65625 18.828125 C-17.1096875 18.22484375 -16.563125 17.6215625 -16 17 C-15.34 17 -14.68 17 -14 17 C-14 16.34 -14 15.68 -14 15 C-13.34 15 -12.68 15 -12 15 C-12 14.34 -12 13.68 -12 13 C-11.34 13 -10.68 13 -10 13 C-9.79375 12.29875 -9.5875 11.5975 -9.375 10.875 C-7.6165622 7.19826641 -5.19571859 4.52704921 -2 2 C-1.34 2 -0.68 2 0 2 C0 1.34 0 0.68 0 0 Z M-54 57 C-54 57.66 -54 58.32 -54 59 C-53.01 58.67 -52.02 58.34 -51 58 C-51.99 57.67 -52.98 57.34 -54 57 Z M-58 62 C-60.64 62.66 -63.28 63.32 -66 64 C-66 64.99 -66 65.98 -66 67 C-61.74268432 67.40749675 -61.74268432 67.40749675 -58.125 65.5 C-57.75375 65.005 -57.3825 64.51 -57 64 C-57.33 63.34 -57.66 62.68 -58 62 Z " fill="#E5E1E4" transform="translate(329,164)"/>
<path d="M0 0 C6.21127026 -0.12347317 12.42182856 -0.21427988 18.6340332 -0.2746582 C20.74776652 -0.29982363 22.86141265 -0.33395926 24.97485352 -0.37719727 C28.01079798 -0.43775941 31.04559362 -0.46618909 34.08203125 -0.48828125 C35.02899368 -0.51408768 35.97595612 -0.5398941 36.95161438 -0.56648254 C39.40263881 -0.56753359 41.60754351 -0.53323795 44 0 C46.02832031 2.40649414 46.02832031 2.40649414 47 5 C47.94302584 6.27748567 48.92045265 7.53062227 49.9375 8.75 C50.42089844 9.34296875 50.90429688 9.9359375 51.40234375 10.546875 C52.88102481 12.15867922 52.88102481 12.15867922 54.89453125 12.30078125 C58.35659017 13.45051881 59.82950009 16.51296023 61.75 19.4375 C62.16121094 20.03626953 62.57242188 20.63503906 62.99609375 21.25195312 C66 25.70791373 66 25.70791373 66 28 C66.66 28 67.32 28 68 28 C70.04169485 30.90548882 71 32.40142046 71 36 C67.12578299 36.20416594 63.25295408 36.32791537 59.375 36.4375 C58.28058594 36.49615234 57.18617188 36.55480469 56.05859375 36.61523438 C48.08867005 36.78429336 48.08867005 36.78429336 45.01953125 34.57324219 C43.48769247 32.79281553 42.2368181 30.99383149 41 29 C39.98679687 27.77410156 39.98679687 27.77410156 38.953125 26.5234375 C38.39109375 25.81445312 37.8290625 25.10546875 37.25 24.375 C36.67765625 23.66085937 36.1053125 22.94671875 35.515625 22.2109375 C33.92372212 19.88872866 32.94620169 17.64379885 32 15 C31.34 15 30.68 15 30 15 C28.375 13 28.375 13 27 11 C22.70921374 14.39123261 22.70921374 14.39123261 20.42724609 19.16650391 C20.22414324 21.56291598 20.16628727 23.90774771 20.1875 26.3125 C20.05912162 34.94087838 20.05912162 34.94087838 19 36 C17.5112814 36.08669432 16.018555 36.10703494 14.52734375 36.09765625 C13.62822266 36.09443359 12.72910156 36.09121094 11.80273438 36.08789062 C10.38444336 36.07532227 10.38444336 36.07532227 8.9375 36.0625 C7.98810547 36.05798828 7.03871094 36.05347656 6.06054688 36.04882812 C3.70696935 36.0370011 1.35351523 36.02052025 -1 36 C-1.66591051 30.64844585 -2.13774025 25.40186563 -2.125 20 C-2.12757812 18.88625 -2.13015625 17.7725 -2.1328125 16.625 C-2 14 -2 14 -1 13 C-0.76518307 10.81707226 -0.58636677 8.62796826 -0.4375 6.4375 C-0.35371094 5.23996094 -0.26992187 4.04242188 -0.18359375 2.80859375 C-0.12300781 1.88175781 -0.06242187 0.95492187 0 0 Z " fill="#6B6B6A" transform="translate(104,235)"/>
<path d="M0 0 C0.66 0.33 1.32 0.66 2 1 C2 7.27 2 13.54 2 20 C-1.22265625 20.65104167 -4.4453125 21.30208333 -7.66796875 21.953125 C-11.41894173 23.1316253 -13.26510685 24.17813044 -16 27 C-16.50591538 29.72591659 -16.69945722 31.85078886 -16.671875 34.57421875 C-16.69099945 35.66087578 -16.69099945 35.66087578 -16.71051025 36.76948547 C-16.74676476 39.0758907 -16.74951899 41.38083504 -16.75 43.6875 C-16.7715921 46.00433261 -16.79999946 48.32094337 -16.83233643 50.63764954 C-16.85014334 52.07766851 -16.86038685 53.51780399 -16.86248779 54.95793152 C-16.8914841 59.8914841 -16.8914841 59.8914841 -18 61 C-19.40348735 61.09860131 -20.81180477 61.13078937 -22.21875 61.1328125 C-23.49298828 61.13474609 -23.49298828 61.13474609 -24.79296875 61.13671875 C-26.13294922 61.13091797 -26.13294922 61.13091797 -27.5 61.125 C-28.39332031 61.12886719 -29.28664063 61.13273437 -30.20703125 61.13671875 C-31.05652344 61.13542969 -31.90601563 61.13414062 -32.78125 61.1328125 C-33.56564453 61.13168457 -34.35003906 61.13055664 -35.15820312 61.12939453 C-37 61 -37 61 -38 60 C-38.10416793 58.23099965 -38.1385382 56.45784292 -38.14526367 54.68579102 C-38.15164352 53.55113907 -38.15802338 52.41648712 -38.16459656 51.24745178 C-38.16570938 50.01208176 -38.1668222 48.77671173 -38.16796875 47.50390625 C-38.17129715 46.24488998 -38.17462555 44.98587372 -38.17805481 43.68870544 C-38.18312943 41.01956665 -38.18589414 38.35052959 -38.18530273 35.68139648 C-38.1852011 32.25687285 -38.19885201 28.83255649 -38.21607494 25.40808201 C-38.22985116 22.14836436 -38.22928326 18.88864908 -38.23046875 15.62890625 C-38.23765427 14.39556046 -38.24483978 13.16221466 -38.25224304 11.89149475 C-38.24916641 10.75369064 -38.24608978 9.61588654 -38.24291992 8.44360352 C-38.24505745 6.93589134 -38.24505745 6.93589134 -38.24723816 5.39772034 C-38 3 -38 3 -36 1 C-32.84765625 0.76953125 -32.84765625 0.76953125 -29.0625 0.8125 C-27.19271484 0.82216797 -27.19271484 0.82216797 -25.28515625 0.83203125 C-22 1 -22 1 -19 2 C-18.3125 4.0625 -18.3125 4.0625 -18 6 C-17.38511719 5.65066406 -16.77023437 5.30132812 -16.13671875 4.94140625 C-15.32847656 4.48636719 -14.52023437 4.03132812 -13.6875 3.5625 C-12.88699219 3.11003906 -12.08648437 2.65757812 -11.26171875 2.19140625 C-7.36559142 0.13904211 -4.35624901 -0.1853723 0 0 Z " fill="#E3E3E3" transform="translate(338,210)"/>
<path d="M0 0 C4.11831436 3.35650163 8.54044781 7.16340548 9.7578125 12.48828125 C9.91855011 17.84433812 9.34501265 23.17156681 8.7578125 28.48828125 C8.4278125 28.48828125 8.0978125 28.48828125 7.7578125 28.48828125 C7.7578125 26.17828125 7.7578125 23.86828125 7.7578125 21.48828125 C6.92588379 21.52755737 6.92588379 21.52755737 6.07714844 21.56762695 C3.55432681 21.67182128 1.03195761 21.73667016 -1.4921875 21.80078125 C-2.36488281 21.84267578 -3.23757812 21.88457031 -4.13671875 21.92773438 C-6.600604 21.97475509 -8.82182012 21.95853369 -11.2421875 21.48828125 C-13.7265625 19.03125 -13.7265625 19.03125 -15.2421875 16.48828125 C-20.16901571 14.02486714 -27.55345456 14.99701349 -32.6796875 16.48828125 C-33.5253125 16.81828125 -34.3709375 17.14828125 -35.2421875 17.48828125 C-36.90839435 17.52742855 -38.57611509 17.53278402 -40.2421875 17.48828125 C-46.16811343 6.77928654 -46.16811343 6.77928654 -45.2421875 1.48828125 C-35.73457457 -8.01933168 -10.36799621 -6.99026922 0 0 Z " fill="#E5E4E5" transform="translate(222.2421875,214.51171875)"/>
<path d="M0 0 C4.57099284 4.64572296 6.56695412 10.24827072 6.54711914 16.67480469 C6.54704361 17.49535339 6.54696808 18.3159021 6.54689026 19.16131592 C6.54172897 20.03749573 6.53656769 20.91367554 6.53125 21.81640625 C6.52983505 22.7207843 6.5284201 23.62516235 6.52696228 24.5569458 C6.52137286 27.44034152 6.50882228 30.32365907 6.49609375 33.20703125 C6.49107738 35.16406138 6.48651471 37.12109272 6.48242188 39.078125 C6.47140688 43.87112378 6.45414949 48.66406427 6.43359375 53.45703125 C6.10359375 53.45703125 5.77359375 53.45703125 5.43359375 53.45703125 C5.43359375 41.90703125 5.43359375 30.35703125 5.43359375 18.45703125 C-4.96140625 18.95203125 -4.96140625 18.95203125 -15.56640625 19.45703125 C-16.22640625 17.80703125 -16.88640625 16.15703125 -17.56640625 14.45703125 C-25.19192642 11.51384803 -32.13380074 12.27162889 -39.56640625 15.45703125 C-40.88640625 15.45703125 -42.20640625 15.45703125 -43.56640625 15.45703125 C-46.0110256 11.09923155 -47.18964074 7.44917424 -47.56640625 2.45703125 C-46.37490218 -1.11748097 -44.95608059 -1.90284704 -41.703125 -3.625 C-29.16409572 -9.0119687 -10.97249102 -8.7095792 0 0 Z " fill="#DEDEDE" transform="translate(393.56640625,216.54296875)"/>
<path d="M0 0 C2.97922593 -0.02683987 5.95821295 -0.04676037 8.9375 -0.0625 C9.78763672 -0.07087891 10.63777344 -0.07925781 11.51367188 -0.08789062 C12.32255859 -0.09111328 13.13144531 -0.09433594 13.96484375 -0.09765625 C14.7137085 -0.10289307 15.46257324 -0.10812988 16.23413086 -0.11352539 C18 0 18 0 19 1 C19.10087212 3.50924153 19.13972032 5.99036384 19.1328125 8.5 C19.13424759 9.62631836 19.13424759 9.62631836 19.13571167 10.77539062 C19.13639338 12.36588627 19.13453972 13.95638467 19.13037109 15.546875 C19.12502267 17.98964655 19.13031634 20.43223421 19.13671875 22.875 C19.13605797 24.41666707 19.1347768 25.95833403 19.1328125 27.5 C19.13483673 28.23541016 19.13686096 28.97082031 19.13894653 29.72851562 C19.11495161 34.88504839 19.11495161 34.88504839 18 36 C16.59651265 36.09860131 15.18819523 36.13078937 13.78125 36.1328125 C12.50701172 36.13474609 12.50701172 36.13474609 11.20703125 36.13671875 C9.86705078 36.13091797 9.86705078 36.13091797 8.5 36.125 C7.60667969 36.12886719 6.71335937 36.13273437 5.79296875 36.13671875 C4.94347656 36.13542969 4.09398437 36.13414062 3.21875 36.1328125 C2.43435547 36.13168457 1.64996094 36.13055664 0.84179688 36.12939453 C-1 36 -1 36 -2 35 C-2.08748207 33.07332493 -2.10697334 31.14348139 -2.09765625 29.21484375 C-2.09443359 28.04501953 -2.09121094 26.87519531 -2.08789062 25.66992188 C-2.07951172 24.43822266 -2.07113281 23.20652344 -2.0625 21.9375 C-2.05798828 20.70193359 -2.05347656 19.46636719 -2.04882812 18.19335938 C-2.03699608 15.12885883 -2.02051173 12.06445279 -2 9 C-1.34 9 -0.68 9 0 9 C0 6.03 0 3.06 0 0 Z " fill="#727171" transform="translate(302,235)"/>
<path d="M0 0 C7.40301508 2.74721263 7.40301508 2.74721263 9.3125 5.9296875 C11.77578475 16.00676149 11.77578475 16.00676149 10 20.7421875 C9.34 20.7421875 8.68 20.7421875 8 20.7421875 C7.86464844 21.64904297 7.86464844 21.64904297 7.7265625 22.57421875 C6.57909271 25.99812053 4.19820822 26.94666013 1.19140625 28.7109375 C-1.82115505 30.1286134 -4.70478513 30.43131817 -8 30.7421875 C-8.763125 31.0928125 -9.52625 31.4434375 -10.3125 31.8046875 C-16.82447591 34.076307 -24.30802472 32.73359125 -31 31.7421875 C-30.67 30.4221875 -30.34 29.1021875 -30 27.7421875 C-29.34 27.7421875 -28.68 27.7421875 -28 27.7421875 C-27.7525 27.1853125 -27.505 26.6284375 -27.25 26.0546875 C-23.68844221 19.46580559 -23.68844221 19.46580559 -20.25 17.9921875 C-19.13625 17.8684375 -19.13625 17.8684375 -18 17.7421875 C-17.3296875 17.65324219 -16.659375 17.56429687 -15.96875 17.47265625 C-13.98157118 17.21026468 -11.99092381 16.97446194 -10 16.7421875 C-9.34 14.7621875 -8.68 12.7821875 -8 10.7421875 C-8.66 10.7421875 -9.32 10.7421875 -10 10.7421875 C-8.75257907 6.50095633 -5.20275712 -0.67066791 0 0 Z " fill="#838381" transform="translate(281,238.2578125)"/>
<path d="M0 0 C0.30550781 0.92296875 0.61101562 1.8459375 0.92578125 2.796875 C1.65052128 4.95791798 2.40524928 7.1091033 3.1875 9.25 C4 12 4 12 3 14 C2.05125 13.938125 1.1025 13.87625 0.125 13.8125 C-1.421875 13.9053125 -1.421875 13.9053125 -3 14 C-3.66 14.99 -4.32 15.98 -5 17 C-8.625 17.6875 -8.625 17.6875 -12 18 C-12 19.65 -12 21.3 -12 23 C-12.66 23 -13.32 23 -14 23 C-14 23.66 -14 24.32 -14 25 C-20.93 25 -27.86 25 -35 25 C-36.45494505 14.08791209 -36.45494505 14.08791209 -34.5625 9.5625 C-24.54906763 -0.45093237 -13.43179659 -0.31854063 0 0 Z M0 11 C0 11.66 0 12.32 0 13 C0.99 12.67 1.98 12.34 3 12 C2.01 11.67 1.02 11.34 0 11 Z " fill="#F0EFEF" transform="translate(275,210)"/>
<path d="M0 0 C-0.63017598 2.94082123 -1.66015736 5.32031473 -3 8 C-3 8.66 -3 9.32 -3 10 C-1.68 9.67 -0.36 9.34 1 9 C1 8.34 1 7.68 1 7 C1 6.01 1 5.02 1 4 C3.70879335 2.64560332 6.00933268 2.93498549 9 3 C9.33 3.99 9.66 4.98 10 6 C10.515625 5.484375 11.03125 4.96875 11.5625 4.4375 C14.9710271 2.42734299 17.23106857 3.20272604 21 4 C21 4.99 21 5.98 21 7 C20.34 7.33 19.68 7.66 19 8 C19.66 8.33 20.32 8.66 21 9 C21.66 7.02 22.32 5.04 23 3 C25.27057377 2.94601013 27.54151288 2.90721258 29.8125 2.875 C31.07707031 2.85179687 32.34164062 2.82859375 33.64453125 2.8046875 C37 3 37 3 40 5 C40.29296875 7.3828125 40.29296875 7.3828125 40.1875 10.125 C40.14689453 11.49011719 40.14689453 11.49011719 40.10546875 12.8828125 C40.07066406 13.58148438 40.03585938 14.28015625 40 15 C32.49230769 15.36923077 32.49230769 15.36923077 30 13.5 C29.505 12.7575 29.505 12.7575 29 12 C29.66 10.68 30.32 9.36 31 8 C28.525 7.505 28.525 7.505 26 7 C26 9.64 26 12.28 26 15 C25.21625 14.814375 24.4325 14.62875 23.625 14.4375 C21.02910225 13.74037734 21.02910225 13.74037734 19 15 C17.00045254 15.04254356 14.99958364 15.04080783 13 15 C9.9057191 14.92928932 9.9057191 14.92928932 6.5 15.5 C0.61514142 16.34069408 -1.13976061 15.30909916 -6 12 C-6.66 12 -7.32 12 -8 12 C-8.33 12.99 -8.66 13.98 -9 15 C-9.99 15 -10.98 15 -12 15 C-12 10.71 -12 6.42 -12 2 C-11.01 1.67 -10.02 1.34 -9 1 C-8.67 2.32 -8.34 3.64 -8 5 C-7.236875 4.175 -6.47375 3.35 -5.6875 2.5 C-3 0 -3 0 0 0 Z M11 9 C11.33 9.99 11.66 10.98 12 12 C12 11.01 12 10.02 12 9 C11.67 9 11.34 9 11 9 Z " fill="#999499" transform="translate(123,292)"/>
<path d="M0 0 C0.66 0 1.32 0 2 0 C1.55946315 4.84590538 -0.74505877 8.48141867 -4 12 C-4.66 12 -5.32 12 -6 12 C-6.27779297 12.5887793 -6.55558594 13.17755859 -6.84179688 13.78417969 C-8.65418365 17.25155371 -11.08753127 20.18298549 -13.5 23.25 C-13.99886719 23.8996875 -14.49773437 24.549375 -15.01171875 25.21875 C-16.29184193 26.85236564 -17.64105599 28.43134241 -19 30 C-19.66 30 -20.32 30 -21 30 C-21 30.66 -21 31.32 -21 32 C-21.66 32 -22.32 32 -23 32 C-23.33 33.32 -23.66 34.64 -24 36 C-24.66 36 -25.32 36 -26 36 C-26.226875 36.70125 -26.45375 37.4025 -26.6875 38.125 C-29.02805712 43.25193465 -32.97590515 47.1249457 -37 51 C-37.66 50.67 -38.32 50.34 -39 50 C-38.34 48.68 -37.68 47.36 -37 46 C-38.485 46.495 -38.485 46.495 -40 47 C-40.33 47.99 -40.66 48.98 -41 50 C-41.495 48.515 -41.495 48.515 -42 47 C-41.38125 46.7525 -40.7625 46.505 -40.125 46.25 C-37.54919821 44.73482248 -37.29597596 43.64789333 -36 41 C-34.87000485 39.39028993 -33.7011076 37.80736832 -32.5 36.25 C-31.58734375 35.05117187 -31.58734375 35.05117187 -30.65625 33.828125 C-30.1096875 33.22484375 -29.563125 32.6215625 -29 32 C-28.34 32 -27.68 32 -27 32 C-27 31.34 -27 30.68 -27 30 C-26.34 30 -25.68 30 -25 30 C-24.7421875 29.43796875 -24.484375 28.8759375 -24.21875 28.296875 C-22.85830223 25.73295421 -21.27211038 23.54773635 -19.5 21.25 C-18.8915625 20.45078125 -18.283125 19.6515625 -17.65625 18.828125 C-17.1096875 18.22484375 -16.563125 17.6215625 -16 17 C-15.34 17 -14.68 17 -14 17 C-14 16.34 -14 15.68 -14 15 C-13.34 15 -12.68 15 -12 15 C-12 14.34 -12 13.68 -12 13 C-11.34 13 -10.68 13 -10 13 C-9.79375 12.29875 -9.5875 11.5975 -9.375 10.875 C-7.6165622 7.19826641 -5.19571859 4.52704921 -2 2 C-1.34 2 -0.68 2 0 2 C0 1.34 0 0.68 0 0 Z " fill="#DBDADA" transform="translate(329,164)"/>
<path d="M0 0 C0.66 0 1.32 0 2 0 C2 0.66 2 1.32 2 2 C1.34 2 0.68 2 0 2 C0 3.65 0 5.3 0 7 C-0.66 7 -1.32 7 -2 7 C-2.66 8.65 -3.32 10.3 -4 12 C-4.66 12 -5.32 12 -6 12 C-6.268125 12.5775 -6.53625 13.155 -6.8125 13.75 C-8.02929189 16.05550043 -9.30333879 18.02056192 -11 20 C-11.66 20 -12.32 20 -13 20 C-13 20.66 -13 21.32 -13 22 C-13.66 22 -14.32 22 -15 22 C-15.25394531 22.57234375 -15.50789063 23.1446875 -15.76953125 23.734375 C-17.14442921 26.26593314 -18.74317786 28.12614321 -20.6875 30.25 C-21.40035156 31.03632813 -22.11320312 31.82265625 -22.84765625 32.6328125 C-23.91306641 33.80457031 -23.91306641 33.80457031 -25 35 C-26.21217963 36.37161036 -27.42075345 37.74641932 -28.625 39.125 C-29.18960938 39.76695312 -29.75421875 40.40890625 -30.3359375 41.0703125 C-31.46605916 42.38082917 -32.57494105 43.70990374 -33.6640625 45.0546875 C-34.18742188 45.69664062 -34.71078125 46.33859375 -35.25 47 C-35.70890625 47.5775 -36.1678125 48.155 -36.640625 48.75 C-38 50 -38 50 -41 50 C-40.40683971 46.0942676 -38.51378095 43.78196414 -36.0625 40.75 C-35.35222656 39.85796875 -34.64195312 38.9659375 -33.91015625 38.046875 C-33.27980469 37.37140625 -32.64945313 36.6959375 -32 36 C-31.34 36 -30.68 36 -30 36 C-29.75378906 35.27941406 -29.50757813 34.55882812 -29.25390625 33.81640625 C-27.444714 29.75276883 -24.64421696 26.766902 -21.77734375 23.40234375 C-20.10626517 21.14363315 -19.41108784 19.73847748 -19 17 C-18.34 17 -17.68 17 -17 17 C-16.731875 16.401875 -16.46375 15.80375 -16.1875 15.1875 C-13.87188086 10.92188579 -11.43274056 9.74976601 -7 8 C-6.67 7.34 -6.34 6.68 -6 6 C-5.34 6 -4.68 6 -4 6 C-3.566875 5.071875 -3.566875 5.071875 -3.125 4.125 C-2 2 -2 2 0 0 Z " fill="#A2A1A2" transform="translate(269,236)"/>
<path d="M0 0 C1.12664062 -0.00257813 2.25328125 -0.00515625 3.4140625 -0.0078125 C6.375 0.125 6.375 0.125 9.375 1.125 C10.57772819 3.53045638 10.47571472 5.07496953 10.4375 7.75 C10.42847656 8.56726563 10.41945313 9.38453125 10.41015625 10.2265625 C10.39855469 10.85304688 10.38695312 11.47953125 10.375 12.125 C9.385 12.125 8.395 12.125 7.375 12.125 C7.045 9.815 6.715 7.505 6.375 5.125 C5.715 5.125 5.055 5.125 4.375 5.125 C3.715 7.435 3.055 9.745 2.375 12.125 C1.385 11.795 0.395 11.465 -0.625 11.125 C-0.625 8.815 -0.625 6.505 -0.625 4.125 C-1.615 4.125 -2.605 4.125 -3.625 4.125 C-3.625 6.435 -3.625 8.745 -3.625 11.125 C-4.945 11.455 -6.265 11.785 -7.625 12.125 C-7.955 9.815 -8.285 7.505 -8.625 5.125 C-9.06199219 6.19041016 -9.06199219 6.19041016 -9.5078125 7.27734375 C-10.73944517 10.0388346 -11.9596356 12.59898216 -13.625 15.125 C-16.9375 16.25 -16.9375 16.25 -19.625 16.125 C-19.625 14.805 -19.625 13.485 -19.625 12.125 C-18.635 11.795 -17.645 11.465 -16.625 11.125 C-17.615 7.825 -18.605 4.525 -19.625 1.125 C-18.305 1.455 -16.985 1.785 -15.625 2.125 C-15.295 3.115 -14.965 4.105 -14.625 5.125 C-13.965 5.455 -13.305 5.785 -12.625 6.125 C-12.295 4.475 -11.965 2.825 -11.625 1.125 C-7.69643808 0.19803595 -4.03220774 -0.00926944 0 0 Z " fill="#9A989A" transform="translate(336.625,294.875)"/>
<path d="M0 0 C3.75 0.125 3.75 0.125 6.25 0.6875 C9.57287519 1.26900316 12.45052754 0.70725985 15.75 0.125 C17.65401138 2.02901138 18.68520439 3.45925686 18.94921875 6.171875 C18.9386578 8.15733273 18.84915043 10.1419914 18.75 12.125 C12.36442786 13.37707297 12.36442786 13.37707297 9.3125 12.125 C5.5418159 10.65351352 2.71091143 11.45365908 -1.25 12.125 C-1.25 13.115 -1.25 14.105 -1.25 15.125 C-2.24 15.125 -3.23 15.125 -4.25 15.125 C-5.26058283 11.88962662 -5.24200982 9.29514394 -4.875 5.9375 C-4.78476562 5.05707031 -4.69453125 4.17664063 -4.6015625 3.26953125 C-4.03290022 -0.19930865 -3.67372879 0.14129726 0 0 Z M-0.25 4.125 C-0.58 5.445 -0.91 6.765 -1.25 8.125 C0.07 8.455 1.39 8.785 2.75 9.125 C3.08 7.475 3.41 5.825 3.75 4.125 C2.43 4.125 1.11 4.125 -0.25 4.125 Z M7.75 4.125 C8.75 6.125 8.75 6.125 8.75 6.125 Z M10.75 4.125 C14.75 5.125 14.75 5.125 14.75 5.125 Z " fill="#B5B0B5" transform="translate(298.25,294.875)"/>
<path d="M0 0 C0.87462891 0.00902344 1.74925781 0.01804688 2.65039062 0.02734375 C4.78788064 0.0507043 6.92522786 0.08656753 9.0625 0.125 C9.0625 0.455 9.0625 0.785 9.0625 1.125 C8.16325806 1.18445801 8.16325806 1.18445801 7.24584961 1.24511719 C4.49564942 1.43718287 1.74817143 1.6558767 -1 1.875 C-2.41442383 1.9678125 -2.41442383 1.9678125 -3.85742188 2.0625 C-9.91780331 2.56929148 -14.0173354 3.46526769 -18.9375 7.125 C-21.87291315 10.77459614 -22.37123411 13.81896072 -22.625 18.4375 C-22.72361328 20.04044922 -22.72361328 20.04044922 -22.82421875 21.67578125 C-22.86160156 22.48402344 -22.89898437 23.29226563 -22.9375 24.125 C-21.9475 24.455 -20.9575 24.785 -19.9375 25.125 C-19.81375 25.764375 -19.69 26.40375 -19.5625 27.0625 C-19.35625 27.743125 -19.15 28.42375 -18.9375 29.125 C-16.75321431 30.36767038 -16.75321431 30.36767038 -13.9375 31.125 C-12.844375 31.49625 -11.75125 31.8675 -10.625 32.25 C-4.3765086 33.73269287 1.04380989 33.70443862 7.0625 31.125 C7.7225 30.465 8.3825 29.805 9.0625 29.125 C11.6875 29 11.6875 29 14.0625 29.125 C14.0625 30.775 14.0625 32.425 14.0625 34.125 C19.6725 34.125 25.2825 34.125 31.0625 34.125 C31.0625 34.455 31.0625 34.785 31.0625 35.125 C28.10362541 35.20569658 25.1469341 35.26534665 22.1875 35.3125 C21.34574219 35.33763672 20.50398438 35.36277344 19.63671875 35.38867188 C18.83105469 35.39833984 18.02539062 35.40800781 17.1953125 35.41796875 C16.45168457 35.4336792 15.70805664 35.44938965 14.94189453 35.46557617 C14.01159424 35.29699097 14.01159424 35.29699097 13.0625 35.125 C12.4025 34.135 11.7425 33.145 11.0625 32.125 C10.340625 32.599375 9.61875 33.07375 8.875 33.5625 C2.33113858 37.19797857 -5.79441157 36.97532469 -12.9140625 35.01953125 C-17.47217235 33.00445952 -21.46843352 29.42606206 -24.14453125 25.234375 C-26.1233118 19.97062379 -25.55116126 13.90138787 -23.75 8.6875 C-17.71390482 0.15371026 -9.6227873 -0.19026043 0 0 Z " fill="#B2B1B1" transform="translate(367.9375,235.875)"/>
<path d="M0 0 C2.475 0.495 2.475 0.495 5 1 C4.67 3.31 4.34 5.62 4 8 C3.01 8 2.02 8 1 8 C1.20625 8.763125 1.4125 9.52625 1.625 10.3125 C2 13 2 13 0 16 C-0.5775 15.62875 -1.155 15.2575 -1.75 14.875 C-2.86375 14.441875 -2.86375 14.441875 -4 14 C-4.61875 14.309375 -5.2375 14.61875 -5.875 14.9375 C-8.89477635 16.44738817 -10.7819624 15.8045094 -14 15 C-16.375 13.9375 -16.375 13.9375 -18 13 C-16.69715366 9.09146099 -15.2920056 6.53954718 -12 4 C-9.375 3.625 -9.375 3.625 -7 4 C-6.34 4.66 -5.68 5.32 -5 6 C-3.35 4.02 -1.7 2.04 0 0 Z M-11 8 C-11.33 9.32 -11.66 10.64 -12 12 C-10.68 12.33 -9.36 12.66 -8 13 C-7.67 11.68 -7.34 10.36 -7 9 C-8.32 8.67 -9.64 8.34 -11 8 Z " fill="#989698" transform="translate(284,291)"/>
<path d="M0 0 C0.99 0 1.98 0 3 0 C3 0.66 3 1.32 3 2 C5.75753742 2.95453218 7.13436018 2.97257956 10.0625 2.375 C13 2 13 2 14.9375 3.1875 C16 5 16 5 15.6875 7.1875 C15.460625 7.785625 15.23375 8.38375 15 9 C15.66 9 16.32 9 17 9 C16.625 10.9375 16.625 10.9375 16 13 C13.40483479 14.29758261 11.45816973 14.13269102 8.5625 14.125 C7.59441406 14.12757813 6.62632812 14.13015625 5.62890625 14.1328125 C3 14 3 14 0 13 C0 10.69 0 8.38 0 6 C-0.66 6 -1.32 6 -2 6 C-2 4.68 -2 3.36 -2 2 C-1.34 2 -0.68 2 0 2 C0 1.34 0 0.68 0 0 Z M4 6 C3.67 7.32 3.34 8.64 3 10 C4.32 9.67 5.64 9.34 7 9 C6.67 8.01 6.34 7.02 6 6 C5.34 6 4.68 6 4 6 Z " fill="#A7A3A6" transform="translate(246,293)"/>
<path d="M0 0 C0.66 0 1.32 0 2 0 C2 0.66 2 1.32 2 2 C2.68707031 1.91621094 3.37414062 1.83242188 4.08203125 1.74609375 C4.98308594 1.64425781 5.88414062 1.54242188 6.8125 1.4375 C7.70582031 1.33308594 8.59914063 1.22867187 9.51953125 1.12109375 C12 1 12 1 15 2 C14.34 3.32 13.68 4.64 13 6 C13.99 6.66 14.98 7.32 16 8 C16 8.66 16 9.32 16 10 C17.32 10 18.64 10 20 10 C20 10.99 20 11.98 20 13 C19.01 13.33 18.02 13.66 17 14 C16.34 13.34 15.68 12.68 15 12 C14.360625 12.350625 13.72125 12.70125 13.0625 13.0625 C8.90054759 14.33656707 5.23307697 13.86585665 1 13 C0 12 0 12 -0.0625 8.4375 C-0.041875 7.303125 -0.02125 6.16875 0 5 C-0.66 5 -1.32 5 -2 5 C-1.125 1.125 -1.125 1.125 0 0 Z M2 5 C2.33 6.32 2.66 7.64 3 9 C3.99 9 4.98 9 6 9 C6 7.68 6 6.36 6 5 C4.68 5 3.36 5 2 5 Z " fill="#7F7B7C" transform="translate(375,294)"/>
<path d="M0 0 C0.99 0.33 1.98 0.66 3 1 C3 1.99 3 2.98 3 4 C3.99 3.67 4.98 3.34 6 3 C8.125 3.625 8.125 3.625 10 5 C11.2652614 8.60112861 10.9392247 11.34745949 10 15 C9.01 14.67 8.02 14.34 7 14 C6.67 12.02 6.34 10.04 6 8 C5.34 8 4.68 8 4 8 C3.34 10.31 2.68 12.62 2 15 C-1.27275026 15 -3.846632 14.70074844 -7 14 C-8.6290678 9.20862412 -9.20577428 5.94367454 -8 1 C-7.01 1 -6.02 1 -5 1 C-5 1.66 -5 2.32 -5 3 C-3.68 3.66 -2.36 4.32 -1 5 C-1.33 5.66 -1.66 6.32 -2 7 C-2.99 7 -3.98 7 -5 7 C-4.67 8.65 -4.34 10.3 -4 12 C-3.01 12 -2.02 12 -1 12 C-0.67 8.04 -0.34 4.08 0 0 Z " fill="#A5A4A6" transform="translate(179,292)"/>
<path d="M0 0 C4.4554398 0.19413681 8.01999588 0.43701891 11.9375 2.6875 C15.87194547 7.09884795 16.48425626 11.95930436 16.30078125 17.6953125 C15.65409339 22.65045327 14.01657491 26.43903632 10.01171875 29.5390625 C-0.45891525 35.72378932 -13.21383174 36.81696182 -25 34 C-25 33.67 -25 33.34 -25 33 C-18.4 33 -11.8 33 -5 33 C-4.67 32.34 -4.34 31.68 -4 31 C-2.989375 30.896875 -1.97875 30.79375 -0.9375 30.6875 C3.79561696 29.86108275 7.32532353 28.10106843 11 25 C11.495 23.515 11.495 23.515 12 22 C12.66 22 13.32 22 14 22 C13.85786703 20.10388566 13.71113093 18.20811606 13.5625 16.3125 C13.48128906 15.25675781 13.40007812 14.20101562 13.31640625 13.11328125 C13.03548319 10.34913703 12.59843148 7.71054259 12 5 C8.68604223 3.87024167 5.40297337 2.82115227 2 2 C0.85157077 3.28935919 -0.29366227 4.58156579 -1.4375 5.875 C-2.07558594 6.59429687 -2.71367187 7.31359375 -3.37109375 8.0546875 C-5.05014465 9.90750491 -5.05014465 9.90750491 -6 12 C-5.34 12 -4.68 12 -4 12 C-4.33 12.99 -4.66 13.98 -5 15 C-5.99 14.34 -6.98 13.68 -8 13 C-7.55491959 7.95575532 -5.39019075 5.55556591 -2 2 C-1.34 2 -0.68 2 0 2 C0 1.34 0 0.68 0 0 Z " fill="#BCBABA" transform="translate(277,237)"/>
<path d="M0 0 C2.09707461 1.5692395 2.87274514 2.49195199 3.51171875 5.04296875 C3.67447917 7.02864583 3.83723958 9.01432292 4 11 C2.68 11.33 1.36 11.66 0 12 C-0.33 9.69 -0.66 7.38 -1 5 C-1.99 5 -2.98 5 -4 5 C-4.33 7.31 -4.66 9.62 -5 12 C-5.99 12 -6.98 12 -8 12 C-8 9.36 -8 6.72 -8 4 C-8.99 4 -9.98 4 -11 4 C-11 5.98 -11 7.96 -11 10 C-12.32 10.33 -13.64 10.66 -15 11 C-15.33 7.7 -15.66 4.4 -16 1 C-10.5593152 -0.96790727 -5.65976309 -1.63431143 0 0 Z " fill="#B4AEB4" transform="translate(235,295)"/>
<path d="M0 0 C3.51973101 3.25901019 6.52760275 6.8860931 9 11 C9 11.66 9 12.32 9 13 C9.66 13 10.32 13 11 13 C13.04169485 15.90548882 14 17.40142046 14 21 C10.12578299 21.20416594 6.25295408 21.32791537 2.375 21.4375 C0.73337891 21.52547852 0.73337891 21.52547852 -0.94140625 21.61523438 C-8.90548928 21.78416947 -8.90548928 21.78416947 -11.97607422 19.58422852 C-13.51409933 17.80113347 -14.763712 16.00139594 -16 14 C-16.69867188 13.12472656 -17.39734375 12.24945313 -18.1171875 11.34765625 C-18.69726562 10.59355469 -19.27734375 9.83945312 -19.875 9.0625 C-20.47054687 8.29035156 -21.06609375 7.51820313 -21.6796875 6.72265625 C-22.11539063 6.15417969 -22.55109375 5.58570313 -23 5 C-22.01 4.67 -21.02 4.34 -20 4 C-15 9.625 -15 9.625 -15 13 C-14.01 13 -13.02 13 -12 13 C-12 13.66 -12 14.32 -12 15 C-11.34 15.33 -10.68 15.66 -10 16 C-10 16.99 -10 17.98 -10 19 C-3.4 19 3.2 19 10 19 C8.68 16.69 7.36 14.38 6 12 C5.25 9.5625 5.25 9.5625 5 8 C4.01 8 3.02 8 2 8 C0.23537317 4.91190305 0 3.76687864 0 0 Z " fill="#B3B2B1" transform="translate(161,250)"/>
<path d="M0 0 C5.61 0 11.22 0 17 0 C16.02025406 4.89872969 15.15386157 7.23288757 12 11 C9.625 11.625 9.625 11.625 7 11 C2.04761905 8.04761905 2.04761905 8.04761905 0 6 C0 4.02 0 2.04 0 0 Z " fill="#666566" transform="translate(242,236)"/>
<path d="M0 0 C0.99 0.33 1.98 0.66 3 1 C3.99 0.67 4.98 0.34 6 0 C4.54891844 3.27045794 2.72302043 5.61689713 0.3125 8.25 C-0.40035156 9.03632813 -1.11320312 9.82265625 -1.84765625 10.6328125 C-2.55792969 11.41398437 -3.26820313 12.19515625 -4 13 C-5.21217963 14.37161036 -6.42075345 15.74641932 -7.625 17.125 C-8.18960938 17.76695312 -8.75421875 18.40890625 -9.3359375 19.0703125 C-10.46605916 20.38082917 -11.57494105 21.70990374 -12.6640625 23.0546875 C-13.18742188 23.69664062 -13.71078125 24.33859375 -14.25 25 C-14.70890625 25.5775 -15.1678125 26.155 -15.640625 26.75 C-17 28 -17 28 -20 28 C-19.40683971 24.0942676 -17.51378095 21.78196414 -15.0625 18.75 C-14.35222656 17.85796875 -13.64195312 16.9659375 -12.91015625 16.046875 C-12.27980469 15.37140625 -11.64945313 14.6959375 -11 14 C-10.34 14 -9.68 14 -9 14 C-8.61714844 12.91138672 -8.61714844 12.91138672 -8.2265625 11.80078125 C-6.93198926 8.8447016 -5.39544896 6.69435334 -3.375 4.1875 C-2.42753906 3.00220703 -2.42753906 3.00220703 -1.4609375 1.79296875 C-0.97882813 1.20128906 -0.49671875 0.60960937 0 0 Z " fill="#C9C7C9" transform="translate(248,258)"/>
<path d="M0 0 C-0.63017598 2.94082123 -1.66015736 5.32031473 -3 8 C-3 8.66 -3 9.32 -3 10 C-1.35 9.67 0.3 9.34 2 9 C2.103125 9.598125 2.20625 10.19625 2.3125 10.8125 C3.08876455 13.28243264 4.07088921 14.32251235 6 16 C5.236875 15.835 4.47375 15.67 3.6875 15.5 C0.96403764 14.90854604 0.96403764 14.90854604 -2 15 C-3.34789347 14.01971384 -4.68212715 13.02028865 -6 12 C-6.66 12 -7.32 12 -8 12 C-8.33 12.99 -8.66 13.98 -9 15 C-9.99 15 -10.98 15 -12 15 C-12 10.71 -12 6.42 -12 2 C-11.01 1.67 -10.02 1.34 -9 1 C-8.67 2.32 -8.34 3.64 -8 5 C-7.236875 4.175 -6.47375 3.35 -5.6875 2.5 C-3 0 -3 0 0 0 Z " fill="#928E91" transform="translate(123,292)"/>
<path d="M0 0 C0.33 0 0.66 0 1 0 C2.83292414 6.40766041 3.04559253 11.41276707 2 18 C7.72040011 18.8320582 13.22240116 19.12036664 19 19 C19.04898438 17.92878906 19.09796875 16.85757812 19.1484375 15.75390625 C19.22345294 14.35674361 19.2990013 12.9596095 19.375 11.5625 C19.4059375 10.85544922 19.436875 10.14839844 19.46875 9.41992188 C19.57280629 7.60760812 19.77919892 5.80182012 20 4 C20.66 3.67 21.32 3.34 22 3 C22.02683987 5.97922593 22.04676037 8.95821295 22.0625 11.9375 C22.07087891 12.78763672 22.07925781 13.63777344 22.08789062 14.51367188 C22.09272461 15.72700195 22.09272461 15.72700195 22.09765625 16.96484375 C22.10551147 18.08814087 22.10551147 18.08814087 22.11352539 19.23413086 C22 21 22 21 21 22 C19.5112814 22.08669432 18.018555 22.10703494 16.52734375 22.09765625 C15.62822266 22.09443359 14.72910156 22.09121094 13.80273438 22.08789062 C12.85720703 22.07951172 11.91167969 22.07113281 10.9375 22.0625 C9.98810547 22.05798828 9.03871094 22.05347656 8.06054688 22.04882812 C5.70696935 22.0370011 3.35351523 22.02052025 1 22 C0.32272041 16.6191778 -0.11969355 11.37088707 -0.0625 5.9375 C-0.05347656 4.81214844 -0.04445313 3.68679687 -0.03515625 2.52734375 C-0.02355469 1.69332031 -0.01195313 0.85929688 0 0 Z " fill="#A4A2A1" transform="translate(102,249)"/>
<path d="M0 0 C0.33 0 0.66 0 1 0 C1.02465622 4.25414623 1.04283899 8.50825498 1.05493164 12.76245117 C1.05997101 14.21070073 1.06680253 15.65894517 1.07543945 17.10717773 C1.08752247 19.18474588 1.09323211 21.26224697 1.09765625 23.33984375 C1.10551147 25.21724243 1.10551147 25.21724243 1.11352539 27.13256836 C1 30 1 30 0 31 C-1.40348735 31.09860131 -2.81180477 31.13078937 -4.21875 31.1328125 C-5.49298828 31.13474609 -5.49298828 31.13474609 -6.79296875 31.13671875 C-8.13294922 31.13091797 -8.13294922 31.13091797 -9.5 31.125 C-10.39332031 31.12886719 -11.28664063 31.13273437 -12.20703125 31.13671875 C-13.05652344 31.13542969 -13.90601563 31.13414062 -14.78125 31.1328125 C-15.56564453 31.13168457 -16.35003906 31.13055664 -17.15820312 31.12939453 C-19 31 -19 31 -20 30 C-20.08748207 28.07332493 -20.10697334 26.14348139 -20.09765625 24.21484375 C-20.09443359 23.04501953 -20.09121094 21.87519531 -20.08789062 20.66992188 C-20.07951172 19.43822266 -20.07113281 18.20652344 -20.0625 16.9375 C-20.05798828 15.70193359 -20.05347656 14.46636719 -20.04882812 13.19335938 C-20.03699608 10.12885883 -20.02051173 7.06445279 -20 4 C-19.67 4 -19.34 4 -19 4 C-18.93941406 5.07378906 -18.87882812 6.14757812 -18.81640625 7.25390625 C-18.73192349 8.69011315 -18.64727946 10.12631058 -18.5625 11.5625 C-18.52318359 12.26697266 -18.48386719 12.97144531 -18.44335938 13.69726562 C-18.17543717 18.16950552 -17.85413346 22.5944695 -17 27 C-15.06402968 28.51294288 -15.06402968 28.51294288 -13 29 C-13 28.34 -13 27.68 -13 27 C-12.34 27.33 -11.68 27.66 -11 28 C-9.62657169 28.0689472 -8.24997898 28.08467708 -6.875 28.0625 C-5.59625 28.041875 -4.3175 28.02125 -3 28 C-3 27.34 -3 26.68 -3 26 C-2.01 26 -1.02 26 0 26 C0 17.42 0 8.84 0 0 Z " fill="#B6B6B6" transform="translate(320,240)"/>
<path d="M0 0 C2.9375 0.875 2.9375 0.875 4.9375 3.875 C4.6875 7.5 4.6875 7.5 3.9375 10.875 C1.10866253 12.28941874 -0.93626745 12.19400332 -4.0625 11.875 C-6 10.1875 -6 10.1875 -7.0625 7.875 C-6.92427181 5.04132207 -6.38805369 3.38903215 -4.875 1 C-3.0625 -0.125 -3.0625 -0.125 0 0 Z " fill="#8F8C8E" transform="translate(355.0625,295.125)"/>
<path d="M0 0 C2.87438168 1.06458581 5.39048374 2.11605794 8.00390625 3.7421875 C8.87890625 6.4296875 8.87890625 6.4296875 9.00390625 8.7421875 C8.01390625 9.0721875 7.02390625 9.4021875 6.00390625 9.7421875 C5.34390625 9.4121875 4.68390625 9.0821875 4.00390625 8.7421875 C4.00390625 8.0821875 4.00390625 7.4221875 4.00390625 6.7421875 C3.22015625 6.9484375 2.43640625 7.1546875 1.62890625 7.3671875 C0.76265625 7.4909375 -0.10359375 7.6146875 -0.99609375 7.7421875 C-1.65609375 7.0821875 -2.31609375 6.4221875 -2.99609375 5.7421875 C-2.99609375 6.7321875 -2.99609375 7.7221875 -2.99609375 8.7421875 C-3.98609375 10.2271875 -3.98609375 10.2271875 -4.99609375 11.7421875 C-6.64609375 11.4121875 -8.29609375 11.0821875 -9.99609375 10.7421875 C-8.74995317 6.50530952 -5.19944553 -0.67155265 0 0 Z " fill="#62615F" transform="translate(280.99609375,238.2578125)"/>
<path d="M0 0 C0.66 0.66 1.32 1.32 2 2 C1.96712417 4.72869407 1.43602229 7.2966618 1 10 C-4.625 11.125 -4.625 11.125 -8 10 C-9.375 8.3125 -9.375 8.3125 -10 6 C-7.67753962 0.07772602 -6.25169722 -1.71921674 0 0 Z " fill="#8D888B" transform="translate(200,296)"/>
<path d="M0 0 C0.82741699 0.01047363 1.65483398 0.02094727 2.50732422 0.03173828 C3.71799561 0.03923096 3.71799561 0.03923096 4.953125 0.046875 C6.49202393 0.07418701 6.49202393 0.07418701 8.06201172 0.10205078 C12.95013672 0.16392578 12.95013672 0.16392578 17.93701172 0.22705078 C17.93701172 11.77705078 17.93701172 23.32705078 17.93701172 35.22705078 C12.32701172 35.22705078 6.71701172 35.22705078 0.93701172 35.22705078 C0.93701172 33.57705078 0.93701172 31.92705078 0.93701172 30.22705078 C-0.05298828 29.89705078 -1.04298828 29.56705078 -2.06298828 29.22705078 C-1.73298828 28.56705078 -1.40298828 27.90705078 -1.06298828 27.22705078 C0.25701172 27.55705078 1.57701172 27.88705078 2.93701172 28.22705078 C2.93701172 29.87705078 2.93701172 31.52705078 2.93701172 33.22705078 C4.73138672 33.19611328 4.73138672 33.19611328 6.56201172 33.16455078 C10.11706041 33.15822507 13.44256795 33.52816203 16.93701172 34.22705078 C16.10367839 32.06038411 16.10367839 32.06038411 13.93701172 31.22705078 C14.59701172 30.23705078 15.25701172 29.24705078 15.93701172 28.22705078 C16.3058836 25.32060834 16.3058836 25.32060834 16.35107422 22.02783203 C16.38974609 20.81933594 16.42841797 19.61083984 16.46826172 18.36572266 C16.49919922 17.10308594 16.53013672 15.84044922 16.56201172 14.53955078 C16.60068359 13.2653125 16.63935547 11.99107422 16.67919922 10.67822266 C16.7735857 7.52807384 16.85639207 4.37758198 16.93701172 1.22705078 C6.54201172 1.72205078 6.54201172 1.72205078 -4.06298828 2.22705078 C-2.06298828 0.22705078 -2.06298828 0.22705078 0 0 Z " fill="#939192" transform="translate(381.06298828125,234.77294921875)"/>
<path d="M0 0 C1.32 0.33 2.64 0.66 4 1 C4.12375 1.928125 4.2475 2.85625 4.375 3.8125 C4.81533082 7.13925235 4.81533082 7.13925235 7 10 C5.35 10 3.7 10 2 10 C1.67 10.66 1.34 11.32 1 12 C1 11.34 1 10.68 1 10 C-1.31 11.32 -3.62 12.64 -6 14 C-6 13.01 -6 12.02 -6 11 C-5.34 11 -4.68 11 -4 11 C-4 10.34 -4 9.68 -4 9 C-7.52381687 11.54604597 -7.52381687 11.54604597 -10 15 C-10.66 15 -11.32 15 -12 15 C-12.66 16.32 -13.32 17.64 -14 19 C-14.99 18.67 -15.98 18.34 -17 18 C-16.23883449 16.84772177 -15.46567307 15.7033614 -14.6875 14.5625 C-14.25824219 13.92441406 -13.82898438 13.28632813 -13.38671875 12.62890625 C-12 11 -12 11 -9 10 C-8.67 9.34 -8.34 8.68 -8 8 C-6.845 7.690625 -5.69 7.38125 -4.5 7.0625 C-3.345 6.711875 -2.19 6.36125 -1 6 C0.15811388 3.05270463 0.15811388 3.05270463 0 0 Z " fill="#DFD5DC" transform="translate(275,227)"/>
<path d="M0 0 C1.32 0.33 2.64 0.66 4 1 C4.33 1.99 4.66 2.98 5 4 C5.66 4.33 6.32 4.66 7 5 C7.33 3.35 7.66 1.7 8 0 C8.99 0 9.98 0 11 0 C10.48855094 5.11449056 9.15443249 9.88253205 6 14 C2.75 15 2.75 15 0 15 C0 13.68 0 12.36 0 11 C0.99 10.67 1.98 10.34 3 10 C2.01 6.7 1.02 3.4 0 0 Z " fill="#858283" transform="translate(317,296)"/>
<path d="M0 0 C1.80619523 4.46236469 2.11658501 7.31034294 1 12 C-1.8125 12.25 -1.8125 12.25 -5 12 C-6.875 10.25 -6.875 10.25 -8 8 C-8 5.66666667 -8 3.33333333 -8 1 C-5.29120665 -0.35439668 -2.99066732 -0.06501451 0 0 Z " fill="#777276" transform="translate(132,295)"/>
<path d="M0 0 C1.99954746 -0.04254356 4.00041636 -0.04080783 6 0 C7 1 7 1 7.09765625 3.28515625 C7.08605469 4.20167969 7.07445312 5.11820312 7.0625 6.0625 C7.05347656 6.98160156 7.04445312 7.90070313 7.03515625 8.84765625 C7.02355469 9.55792969 7.01195312 10.26820313 7 11 C-0.50769231 11.36923077 -0.50769231 11.36923077 -3 9.5 C-3.33 9.005 -3.66 8.51 -4 8 C-3.34 6.68 -2.68 5.36 -2 4 C-0.02 4 1.96 4 4 4 C4 3.34 4 2.68 4 2 C2.68 2 1.36 2 0 2 C0 1.34 0 0.68 0 0 Z " fill="#837F81" transform="translate(156,296)"/>
<path d="M0 0 C2 2 2 2 2.1953125 4.1640625 C2.17210937 4.97617187 2.14890625 5.78828125 2.125 6.625 C2.10695313 7.44226563 2.08890625 8.25953125 2.0703125 9.1015625 C2.03550781 10.04128906 2.03550781 10.04128906 2 11 C1.01 11 0.02 11 -1 11 C-1.33 8.69 -1.66 6.38 -2 4 C-2.99 3.67 -3.98 3.34 -5 3 C-5 5.31 -5 7.62 -5 10 C-6.32 10 -7.64 10 -9 10 C-9 6.7 -9 3.4 -9 0 C-5.64961743 -0.83759564 -3.2704774 -1.24052591 0 0 Z " fill="#9E9B9D" transform="translate(370,296)"/>
<path d="M0 0 C0.66 0 1.32 0 2 0 C2.96048423 3.99201259 3.07285923 7.65166824 3 11.75 C2.9557109 15.97075145 3.03480025 20.0080622 3.625 24.1875 C4 28 4 28 2 31 C1.34 31 0.68 31 0 31 C-0.16727437 26.74607233 -0.32786758 22.49196191 -0.48217773 18.23754883 C-0.53566237 16.78923699 -0.59099659 15.34099225 -0.64819336 13.89282227 C-0.72992512 11.81541418 -0.80507768 9.7378583 -0.87890625 7.66015625 C-0.9260376 6.40855713 -0.97316895 5.15695801 -1.02172852 3.86743164 C-1 1 -1 1 0 0 Z " fill="#DBDBDB" transform="translate(122,197)"/>
<path d="M0 0 C0.66 0 1.32 0 2 0 C2 0.66 2 1.32 2 2 C2.68707031 1.91621094 3.37414062 1.83242188 4.08203125 1.74609375 C4.98308594 1.64425781 5.88414062 1.54242188 6.8125 1.4375 C7.70582031 1.33308594 8.59914063 1.22867187 9.51953125 1.12109375 C12 1 12 1 15 2 C14.34 3.65 13.68 5.3 13 7 C11.68 7 10.36 7 9 7 C9 7.66 9 8.32 9 9 C9.66 9.33 10.32 9.66 11 10 C8.36 10 5.72 10 3 10 C3.99 9.67 4.98 9.34 6 9 C6 7.68 6 6.36 6 5 C3.36 5 0.72 5 -2 5 C-1.125 1.125 -1.125 1.125 0 0 Z " fill="#B3ADAE" transform="translate(375,294)"/>
<path d="M0 0 C1.26328125 0.02707031 2.5265625 0.05414063 3.828125 0.08203125 C4.79234375 0.11683594 5.7565625 0.15164062 6.75 0.1875 C6.87336303 5.18076562 6.9350611 8.17668232 3.75 12.1875 C-0.77741172 13.69663724 -5.31426798 13.96179281 -9.75 12.1875 C-10.245 11.8575 -10.74 11.5275 -11.25 11.1875 C-11.640625 5.23046875 -11.640625 5.23046875 -11.25 3.1875 C-7.98676147 -0.46732716 -4.67418356 -0.12983843 0 0 Z M-10.25 4.1875 C-10.5000773 6.64559998 -10.5000773 6.64559998 -10.25 9.1875 C-7.83513057 11.60236943 -7.12292211 11.4836925 -3.8125 11.5 C-3.03003906 11.51675781 -2.24757813 11.53351563 -1.44140625 11.55078125 C1.28295417 11.09914931 2.12721504 10.39489072 3.75 8.1875 C4.48041853 4.57726901 4.48041853 4.57726901 4.75 1.1875 C-3.29777363 0.79068061 -3.29777363 0.79068061 -10.25 4.1875 Z " fill="#ADAAAB" transform="translate(374.25,245.8125)"/>
<path d="M0 0 C4.75 0.875 4.75 0.875 7 2 C6.34 3.65 5.68 5.3 5 7 C4.34 7 3.68 7 3 7 C2.71125 7.78375 2.4225 8.5675 2.125 9.375 C1 12 1 12 -1 14 C-2.32 14 -3.64 14 -5 14 C-3.70022952 9.1008651 -2.07626313 4.62440425 0 0 Z " fill="#A7A6A8" transform="translate(242,251)"/>
<path d="M0 0 C4.62 0 9.24 0 14 0 C12.68 0.33 11.36 0.66 10 1 C10 1.66 10 2.32 10 3 C11.32 3 12.64 3 14 3 C13.67 3.66 13.34 4.32 13 5 C9.7 4.67 6.4 4.34 3 4 C3 6.64 3 9.28 3 12 C1.68 11.67 0.36 11.34 -1 11 C-2.60080151 6.99799622 -1.29279692 3.95443764 0 0 Z " fill="#A3A1A6" transform="translate(146,295)"/>
<path d="M0 0 C1.32 0.66 2.64 1.32 4 2 C4 4.64 4 7.28 4 10 C-2.625 11.25 -2.625 11.25 -6 9 C-6.1875 6.375 -6.1875 6.375 -6 4 C-4.7934375 3.566875 -4.7934375 3.566875 -3.5625 3.125 C-0.8673532 2.26737432 -0.8673532 2.26737432 0 0 Z " fill="#8E898D" transform="translate(313,297)"/>
<path d="M0 0 C0.33 1.65 0.66 3.3 1 5 C1.99 5.33 2.98 5.66 4 6 C4.33 4.02 4.66 2.04 5 0 C5.99 0.66 6.98 1.32 8 2 C8.1875 4.625 8.1875 4.625 8 7 C5.39850359 8.70097842 4.15226623 9.01268885 1 8.75 C-1.62200178 8.09449955 -3.67201752 7.34306681 -6 6 C-5.1875 3.5625 -5.1875 3.5625 -4 1 C-1 0 -1 0 0 0 Z " fill="#9C979A" transform="translate(272,298)"/>
<path d="M0 0 C0.7734375 0.07605469 1.546875 0.15210938 2.34375 0.23046875 C4.93579704 0.93013362 5.91221187 1.65940031 7.5 3.8125 C8.16957496 6.48568858 8.27362708 9.05075037 8.5 11.8125 C7.18 12.1425 5.86 12.4725 4.5 12.8125 C4.4175 11.69875 4.335 10.585 4.25 9.4375 C3.90942496 5.8592394 3.90942496 5.8592394 1.875 4.5 C0.699375 4.1596875 0.699375 4.1596875 -0.5 3.8125 C-1.7375 3.44125 -2.975 3.07 -4.25 2.6875 C-5.3225 2.39875 -6.395 2.11 -7.5 1.8125 C-4.24139091 -0.35990606 -3.67949197 -0.42314158 0 0 Z " fill="#C3BFC3" transform="translate(230.5,294.1875)"/>
<path d="M0 0 C0.33 0 0.66 0 1 0 C1.02886537 4.31248609 1.04675255 8.62494762 1.0625 12.9375 C1.07087891 14.16919922 1.07925781 15.40089844 1.08789062 16.66992188 C1.09272461 18.4246582 1.09272461 18.4246582 1.09765625 20.21484375 C1.10551147 21.84087524 1.10551147 21.84087524 1.11352539 23.49975586 C1 26 1 26 0 27 C-2.69654854 27.07319621 -5.36691458 27.09242537 -8.0625 27.0625 C-8.82111328 27.05798828 -9.57972656 27.05347656 -10.36132812 27.04882812 C-12.24091871 27.0370068 -14.12046899 27.01907078 -16 27 C-16 26.67 -16 26.34 -16 26 C-15.37351563 25.93941406 -14.74703125 25.87882812 -14.1015625 25.81640625 C-12.87566406 25.69072266 -12.87566406 25.69072266 -11.625 25.5625 C-10.81289062 25.48128906 -10.00078125 25.40007812 -9.1640625 25.31640625 C-6.95727195 25.10909886 -6.95727195 25.10909886 -5 24 C-3.68 24.33 -2.36 24.66 -1 25 C-0.67 16.75 -0.34 8.5 0 0 Z " fill="#D2D2D1" transform="translate(231,244)"/>
<path d="M0 0 C0.99 0 1.98 0 3 0 C3 0.66 3 1.32 3 2 C5.97 2.495 5.97 2.495 9 3 C9 4.65 9 6.3 9 8 C11.475 8.99 11.475 8.99 14 10 C14 10.33 14 10.66 14 11 C11.125 11.125 11.125 11.125 8 11 C7.34 10.34 6.68 9.68 6 9 C6 8.01 6 7.02 6 6 C5.01 6.33 4.02 6.66 3 7 C3 6.34 3 5.68 3 5 C1.35 5.33 -0.3 5.66 -2 6 C-2 4.68 -2 3.36 -2 2 C-1.34 2 -0.68 2 0 2 C0 1.34 0 0.68 0 0 Z " fill="#C8C6C8" transform="translate(246,293)"/>
<path d="M0 0 C0.99 0.33 1.98 0.66 3 1 C3 5.62 3 10.24 3 15 C1.68 15 0.36 15 -1 15 C-1.02685412 12.68756208 -1.04632841 10.3750373 -1.0625 8.0625 C-1.07410156 6.77472656 -1.08570313 5.48695313 -1.09765625 4.16015625 C-1 1 -1 1 0 0 Z " fill="#B5B2B4" transform="translate(215,291)"/>
<path d="M0 0 C5.02705917 0.12047418 8.09872551 0.24587237 12.0625 3.5625 C12.701875 4.366875 13.34125 5.17125 14 6 C11.55180323 5.04792348 9.21700318 4.12494122 6.9375 2.8125 C4.44700798 1.76810012 3.51172047 2.0746293 1 3 C-0.72298452 4.53772955 -0.72298452 4.53772955 -2.1875 6.4375 C-2.69667969 7.05496094 -3.20585937 7.67242187 -3.73046875 8.30859375 C-5.06608576 9.98279746 -5.06608576 9.98279746 -6 12 C-5.34 12 -4.68 12 -4 12 C-4.33 12.99 -4.66 13.98 -5 15 C-5.99 14.34 -6.98 13.68 -8 13 C-7.55491959 7.95575532 -5.39019075 5.55556591 -2 2 C-1.34 2 -0.68 2 0 2 C0 1.34 0 0.68 0 0 Z " fill="#BCBABB" transform="translate(277,237)"/>
<path d="M0 0 C0 3.20395416 -0.74335022 5.09399739 -2 8 C-2.66 8 -3.32 8 -4 8 C-4.061875 8.598125 -4.12375 9.19625 -4.1875 9.8125 C-5.33938899 12.91373958 -7.06759592 13.64108103 -10 15 C-10.66 14.67 -11.32 14.34 -12 14 C-11.01 12.68 -10.02 11.36 -9 10 C-9.33 9.34 -9.66 8.68 -10 8 C-9.34 8 -8.68 8 -8 8 C-8 7.34 -8 6.68 -8 6 C-7.34 6 -6.68 6 -6 6 C-5.67 5.01 -5.34 4.02 -5 3 C-2.4375 1.3125 -2.4375 1.3125 0 0 Z " fill="#E4E2E3" transform="translate(310,188)"/>
<path d="M0 0 C0.33 0 0.66 0 1 0 C1.33 1.65 1.66 3.3 2 5 C3.65 5.33 5.3 5.66 7 6 C7.33 5.34 7.66 4.68 8 4 C7.125 7.875 7.125 7.875 6 9 C4.33382885 9.04063832 2.66611905 9.042721 1 9 C1 9.99 1 10.98 1 12 C0.01 12 -0.98 12 -2 12 C-3.60170888 7.9957278 -2.34040384 4.94674464 -1 1 C-0.67 0.67 -0.34 0.34 0 0 Z " fill="#7E7B7E" transform="translate(296,298)"/>
<path d="M0 0 C-0.66 0.66 -1.32 1.32 -2 2 C-1.67 2.66 -1.34 3.32 -1 4 C-1.66 4 -2.32 4 -3 4 C-3 6.31 -3 8.62 -3 11 C-4.32 11.33 -5.64 11.66 -7 12 C-7.33 8.37 -7.66 4.74 -8 1 C-5.29120665 -0.35439668 -2.99066732 -0.06501451 0 0 Z " fill="#C8C6C7" transform="translate(336,295)"/>
<path d="M0 0 C0.87462891 0.00902344 1.74925781 0.01804688 2.65039062 0.02734375 C4.78788064 0.0507043 6.92522786 0.08656753 9.0625 0.125 C9.0625 0.455 9.0625 0.785 9.0625 1.125 C8.17896851 1.17660278 8.17896851 1.17660278 7.27758789 1.22924805 C4.55809838 1.40106416 1.84211138 1.60657539 -0.875 1.8125 C-1.80119141 1.86599609 -2.72738281 1.91949219 -3.68164062 1.97460938 C-9.79671859 2.46810689 -14.00587516 3.8173013 -19.16235352 7.17504883 C-19.74815186 7.48853271 -20.3339502 7.8020166 -20.9375 8.125 C-21.5975 7.795 -22.2575 7.465 -22.9375 7.125 C-15.91637888 0.61761945 -9.34316939 -0.18473187 0 0 Z " fill="#C6C5C5" transform="translate(367.9375,235.875)"/>
<path d="M0 0 C-0.52835511 4.07690223 -1.64675717 6.25617734 -4.375 9.3125 C-4.98085937 10.00988281 -5.58671875 10.70726562 -6.2109375 11.42578125 C-8 13 -8 13 -11 13 C-10.42473475 9.14129768 -8.64227602 7.10501432 -6.0625 4.25 C-5.35222656 3.45078125 -4.64195312 2.6515625 -3.91015625 1.828125 C-2 0 -2 0 0 0 Z " fill="#B3B0B1" transform="translate(239,273)"/>
<path d="M0 0 C0.85851562 1.07701172 0.85851562 1.07701172 1.734375 2.17578125 C3.19290927 3.99391966 4.66095793 5.80448711 6.140625 7.60546875 C6.83671875 8.45753906 7.5328125 9.30960938 8.25 10.1875 C8.95640625 11.04730469 9.6628125 11.90710938 10.390625 12.79296875 C12 15 12 15 12 17 C8.64138305 15.56590028 6.64125061 13.80630679 4.25 11.0625 C3.63640625 10.37285156 3.0228125 9.68320313 2.390625 8.97265625 C1 7 1 7 1 4 C-0.32 3.34 -1.64 2.68 -3 2 C-2.01 1.34 -1.02 0.68 0 0 Z " fill="#CFCECE" transform="translate(147,231)"/>
<path d="M0 0 C0.66 0 1.32 0 2 0 C2 1.98 2 3.96 2 6 C2.66 6 3.32 6 4 6 C3.34 8.64 2.68 11.28 2 14 C1.01 14 0.02 14 -1 14 C-1.02685938 11.85423363 -1.04633088 9.70837355 -1.0625 7.5625 C-1.07410156 6.36753906 -1.08570312 5.17257812 -1.09765625 3.94140625 C-1 1 -1 1 0 0 Z " fill="#777376" transform="translate(112,293)"/>
<path d="M0 0 C1.65 0 3.3 0 5 0 C5.33 1.32 5.66 2.64 6 4 C4.02 4.99 4.02 4.99 2 6 C2 5.01 2 4.02 2 3 C2.66 3 3.32 3 4 3 C4 2.34 4 1.68 4 1 C0.47618313 3.54604597 0.47618313 3.54604597 -2 7 C-2.66 7 -3.32 7 -4 7 C-4.66 8.32 -5.32 9.64 -6 11 C-6.99 10.67 -7.98 10.34 -9 10 C-8.23883449 8.84772177 -7.46567307 7.7033614 -6.6875 6.5625 C-6.04361328 5.60537109 -6.04361328 5.60537109 -5.38671875 4.62890625 C-4 3 -4 3 -1 2 C-0.67 1.34 -0.34 0.68 0 0 Z " fill="#D2CFD2" transform="translate(267,235)"/>
<path d="M0 0 C2 2 2 2 2.125 4.625 C2.08375 5.40875 2.0425 6.1925 2 7 C0.68 7.33 -0.64 7.66 -2 8 C-1.67 7.34 -1.34 6.68 -1 6 C-0.34 6 0.32 6 1 6 C0.67 5.01 0.34 4.02 0 3 C-0.763125 3.165 -1.52625 3.33 -2.3125 3.5 C-5 4 -5 4 -8 4 C-8.33 5.32 -8.66 6.64 -9 8 C-9.33 7.34 -9.66 6.68 -10 6 C-7.49456591 0.15398713 -6.34351328 -1.74446615 0 0 Z " fill="#AEABAE" transform="translate(200,296)"/>
<path d="M0 0 C1.3271261 3.9813783 1.06915913 7.85045227 1 12 C0.67 12 0.34 12 0 12 C-0.33 10.02 -0.66 8.04 -1 6 C-2.83380676 6 -4.66848121 6.03342406 -6.5 6.125 C-9 6 -9 6 -12 4 C-10.18887927 1.71226855 -9.39279457 1.04790178 -6.4375 0.6875 C-4 1 -4 1 -2 3 C-1.34 2.01 -0.68 1.02 0 0 Z " fill="#C5C3C6" transform="translate(281,294)"/>
<path d="M0 0 C0.66 0.33 1.32 0.66 2 1 C1.54625 1.721875 1.0925 2.44375 0.625 3.1875 C-0.85494358 5.74894081 -1.97217539 8.23277989 -3 11 C-4.65 11 -6.3 11 -8 11 C-7.835 10.401875 -7.67 9.80375 -7.5 9.1875 C-6.8885876 6.88655664 -6.8885876 6.88655664 -7 4 C-6.01 4 -5.02 4 -4 4 C-1.81222534 2.0624994 -1.81222534 2.0624994 0 0 Z " fill="#EAE9EB" transform="translate(292,209)"/>
<path d="M0 0 C0.66 0 1.32 0 2 0 C2 1.65 2 3.3 2 5 C5.63 5.33 9.26 5.66 13 6 C13 6.33 13 6.66 13 7 C11.23103898 7.36340286 9.45973374 7.71540883 7.6875 8.0625 C6.70136719 8.25972656 5.71523437 8.45695312 4.69921875 8.66015625 C2 9 2 9 -1 8 C-1.04241723 5.66705225 -1.04092937 3.33297433 -1 1 C-0.67 0.67 -0.34 0.34 0 0 Z " fill="#A49DA2" transform="translate(247,298)"/>
<path d="M0 0 C0.99 0 1.98 0 3 0 C3 0.66 3 1.32 3 2 C4.32 2.66 5.64 3.32 7 4 C6.67 4.66 6.34 5.32 6 6 C5.01 6 4.02 6 3 6 C3.33 7.65 3.66 9.3 4 11 C2.68 11.33 1.36 11.66 0 12 C-0.19477739 10.37585622 -0.38059458 8.75063577 -0.5625 7.125 C-0.66691406 6.22007812 -0.77132812 5.31515625 -0.87890625 4.3828125 C-1 2 -1 2 0 0 Z " fill="#9D9C9F" transform="translate(171,293)"/>
<path d="M0 0 C0.33 0 0.66 0 1 0 C1 3.3 1 6.6 1 10 C7.27 10 13.54 10 20 10 C20 10.33 20 10.66 20 11 C14.39 11 8.78 11 3 11 C2.67 12.32 2.34 13.64 2 15 C-1.00244501 9.99592499 -1.38493338 6.67776737 -1 1 C-0.67 0.67 -0.34 0.34 0 0 Z " fill="#D1D1D1" transform="translate(239,225)"/>
<path d="M0 0 C0 0.66 0 1.32 0 2 C-0.92683594 2.04898438 -1.85367187 2.09796875 -2.80859375 2.1484375 C-4.00613281 2.22320312 -5.20367187 2.29796875 -6.4375 2.375 C-8.22994141 2.47941406 -8.22994141 2.47941406 -10.05859375 2.5859375 C-11.02925781 2.72257813 -11.99992187 2.85921875 -13 3 C-13.33 3.66 -13.66 4.32 -14 5 C-16.31 4.67 -18.62 4.34 -21 4 C-21 3.34 -21 2.68 -21 2 C-13.87049629 0.09879901 -7.36259293 -0.22424141 0 0 Z " fill="#DCDADC" transform="translate(272,210)"/>
<path d="M0 0 C2.31 0.66 4.62 1.32 7 2 C7 3.65 7 5.3 7 7 C1.46153846 7.36923077 1.46153846 7.36923077 -0.875 5.5 C-1.24625 5.005 -1.6175 4.51 -2 4 C-1.34 2.68 -0.68 1.36 0 0 Z " fill="#9C999A" transform="translate(154,300)"/>
<path d="M0 0 C0.66 0.33 1.32 0.66 2 1 C2 5.62 2 10.24 2 15 C1.01 15 0.02 15 -1 15 C-1.02685412 12.68756208 -1.04632841 10.3750373 -1.0625 8.0625 C-1.07410156 6.77472656 -1.08570313 5.48695313 -1.09765625 4.16015625 C-1 1 -1 1 0 0 Z " fill="#BAB6B9" transform="translate(210,292)"/>
<path d="M0 0 C0.99 0.33 1.98 0.66 3 1 C3 2.32 3 3.64 3 5 C3.928125 4.938125 4.85625 4.87625 5.8125 4.8125 C9 5 9 5 10.875 6.5 C11.24625 6.995 11.6175 7.49 12 8 C9.50331711 9.24834144 8.18670849 8.95155125 5.4375 8.625 C4.63183594 8.53476562 3.82617188 8.44453125 2.99609375 8.3515625 C1 8 1 8 0 7 C-0.04092937 4.66702567 -0.04241723 2.33294775 0 0 Z " fill="#8D898C" transform="translate(375,299)"/>
<path d="M0 0 C0.99 0 1.98 0 3 0 C3 4.95 3 9.9 3 15 C2.01 15 1.02 15 0 15 C0 10.05 0 5.1 0 0 Z " fill="#A7A5A7" transform="translate(240,292)"/>
<path d="M0 0 C0.66 0 1.32 0 2 0 C2 1.98 2 3.96 2 6 C1.34 6 0.68 6 0 6 C0 6.66 0 7.32 0 8 C-1.98 8.66 -3.96 9.32 -6 10 C-6 8.68 -6 7.36 -6 6 C-3.5625 3.875 -3.5625 3.875 -1 2 C-0.67 1.34 -0.34 0.68 0 0 Z " fill="#949194" transform="translate(256,250)"/>
<path d="M0 0 C0.33 0.66 0.66 1.32 1 2 C1.66 2.33 2.32 2.66 3 3 C2.505 3.433125 2.01 3.86625 1.5 4.3125 C-0.33218192 5.99740483 -0.33218192 5.99740483 0 9 C-3.75 10.125 -3.75 10.125 -6 9 C-4.68775452 5.06326356 -3.08089673 2.77280706 0 0 Z " fill="#6C6B6B" transform="translate(277,240)"/>
<path d="M0 0 C2.97 0 5.94 0 9 0 C8.01 0.495 8.01 0.495 7 1 C6.53348793 3.12576782 6.53348793 3.12576782 6.375 5.5625 C6.30023438 6.38878906 6.22546875 7.21507812 6.1484375 8.06640625 C6.09945312 8.70449219 6.05046875 9.34257812 6 10 C5.01 10 4.02 10 3 10 C3 7.36 3 4.72 3 2 C2.01 2 1.02 2 0 2 C0 1.34 0 0.68 0 0 Z " fill="#8E8A8C" transform="translate(224,297)"/>
<path d="M0 0 C1.65 0 3.3 0 5 0 C5 1.65 5 3.3 5 5 C10.61 5 16.22 5 22 5 C22 5.33 22 5.66 22 6 C19.04112541 6.08069658 16.0844341 6.14034665 13.125 6.1875 C11.86236328 6.22520508 11.86236328 6.22520508 10.57421875 6.26367188 C9.76855469 6.27333984 8.96289062 6.28300781 8.1328125 6.29296875 C7.38918457 6.3086792 6.64555664 6.32438965 5.87939453 6.34057617 C5.25919434 6.22818604 4.63899414 6.1157959 4 6 C3.34 5.01 2.68 4.02 2 3 C1.01 3.33 0.02 3.66 -1 4 C-0.67 2.68 -0.34 1.36 0 0 Z " fill="#C9C8C7" transform="translate(377,265)"/>
<path d="M0 0 C1.98 0.495 1.98 0.495 4 1 C4 2.65 4 4.3 4 6 C5.794375 5.9690625 5.794375 5.9690625 7.625 5.9375 C11.18004869 5.93117429 14.50555624 6.30111125 18 7 C18.33 6.01 18.66 5.02 19 4 C19 5.32 19 6.64 19 8 C13.39 8 7.78 8 2 8 C2 6.35 2 4.7 2 3 C1.01 2.67 0.02 2.34 -1 2 C-0.67 1.34 -0.34 0.68 0 0 Z " fill="#9D9B9B" transform="translate(380,262)"/>
<path d="M0 0 C1.24546405 2.49092811 0.7767578 3.41080733 0 6 C0.66 6 1.32 6 2 6 C1.67 6.66 1.34 7.32 1 8 C0.67 8.99 0.34 9.98 0 11 C-0.66 11 -1.32 11 -2 11 C-4.09350689 7.5980513 -4.17942163 4.94727588 -4 1 C-2.68 0.67 -1.36 0.34 0 0 Z " fill="#E6E5E6" transform="translate(181,215)"/>
<path d="M0 0 C0.66 0 1.32 0 2 0 C2 0.66 2 1.32 2 2 C3.65 2.33 5.3 2.66 7 3 C7 4.65 7 6.3 7 8 C6.67 7.01 6.34 6.02 6 5 C3.36 5 0.72 5 -2 5 C-1.125 1.125 -1.125 1.125 0 0 Z " fill="#B7B5B7" transform="translate(375,294)"/>
<path d="M0 0 C0.66 1.32 1.32 2.64 2 4 C0 7 0 7 -3 8 C-4.39439664 8.06665376 -5.79169875 8.08538199 -7.1875 8.0625 C-9.0746875 8.0315625 -9.0746875 8.0315625 -11 8 C-11.33 7.34 -11.66 6.68 -12 6 C-11.38511719 5.98582031 -10.77023437 5.97164063 -10.13671875 5.95703125 C-7.66500527 5.81117256 -5.40322852 5.60506817 -3 5 C-0.8613923 2.61012067 -0.8613923 2.61012067 0 0 Z " fill="#BAB9B9" transform="translate(378,251)"/>
<path d="M0 0 C0.33 0.99 0.66 1.98 1 3 C-1.52475462 4.26237731 -3.31200466 4.09856404 -6.125 4.0625 C-7.03507812 4.05347656 -7.94515625 4.04445313 -8.8828125 4.03515625 C-9.58148438 4.02355469 -10.28015625 4.01195312 -11 4 C-11.33 4.99 -11.66 5.98 -12 7 C-14.0625 7.6875 -14.0625 7.6875 -16 8 C-13.56457565 3.25092251 -13.56457565 3.25092251 -11.3125 2.25 C-10.549375 2.1675 -9.78625 2.085 -9 2 C-4.09696238 1.86666561 -4.09696238 1.86666561 0 0 Z " fill="#B9B5B9" transform="translate(272,254)"/>
<path d="M0 0 C1.3921875 0.3403125 1.3921875 0.3403125 2.8125 0.6875 C1.8225 1.1825 1.8225 1.1825 0.8125 1.6875 C0.8125 2.3475 0.8125 3.0075 0.8125 3.6875 C-0.321875 3.97625 -1.45625 4.265 -2.625 4.5625 C-3.800625 4.93375 -4.97625 5.305 -6.1875 5.6875 C-6.5175 6.3475 -6.8475 7.0075 -7.1875 7.6875 C-6.83051497 5.04581079 -6.435192 3.07859264 -5 0.8125 C-3.1875 -0.3125 -3.1875 -0.3125 0 0 Z " fill="#B4B2B4" transform="translate(355.1875,295.3125)"/>
<path d="M0 0 C0.33 0 0.66 0 1 0 C1.02578125 0.70125 1.0515625 1.4025 1.078125 2.125 C1.4769425 8.79612902 2.72760166 13.19413198 6 19 C6 19.66 6 20.32 6 21 C5.34 21 4.68 21 4 21 C-1.02761541 14.40125477 -0.40187827 8.04872876 0 0 Z " fill="#BEBEBE" transform="translate(175,246)"/>
<path d="M0 0 C0.33 0.99 0.66 1.98 1 3 C1.99 3 2.98 3 4 3 C4.33 4.65 4.66 6.3 5 8 C2.625 8.125 2.625 8.125 0 8 C-0.66 7.34 -1.32 6.68 -2 6 C-1.44444444 1.44444444 -1.44444444 1.44444444 0 0 Z " fill="#80807E" transform="translate(162,255)"/>
<path d="M0 0 C0.66 0 1.32 0 2 0 C1.45276317 3.37462715 0.9451 5.08235 -1 8 C-3.125 8.6875 -3.125 8.6875 -5 9 C-4.75 6.625 -4.75 6.625 -4 4 C-1.9375 2.6875 -1.9375 2.6875 0 2 C0 1.34 0 0.68 0 0 Z " fill="#D1D0D0" transform="translate(329,164)"/>
<path d="M0 0 C0.99 0.33 1.98 0.66 3 1 C3 3.97 3 6.94 3 10 C2.01 10 1.02 10 0 10 C-1.2380014 6.42355152 -0.74926071 3.66305234 0 0 Z " fill="#8D8B8D" transform="translate(344,297)"/>
<path d="M0 0 C0 0.99 0 1.98 0 3 C-0.66 3.66 -1.32 4.32 -2 5 C-5.125 4.625 -5.125 4.625 -8 4 C-8 3.01 -8 2.02 -8 1 C-5.29120665 -0.35439668 -2.99066732 -0.06501451 0 0 Z " fill="#ACA9AC" transform="translate(132,295)"/>
<path d="M0 0 C-0.54226981 3.79588866 -2.20127563 5.47211993 -5 8 C-5 7.34 -5 6.68 -5 6 C-6.32 6.33 -7.64 6.66 -9 7 C-8.07347299 5.82460004 -7.13336613 4.65989423 -6.1875 3.5 C-5.66542969 2.8503125 -5.14335938 2.200625 -4.60546875 1.53125 C-3 0 -3 0 0 0 Z " fill="#B5B4B6" transform="translate(123,292)"/>
<path d="M0 0 C3.13506611 0.33589994 4.025249 1.02665172 6.25 3.375 C8 6 8 6 8 9 C8.66 9 9.32 9 10 9 C9.67 10.32 9.34 11.64 9 13 C7.68568828 11.20966193 6.3736047 9.41768797 5.0625 7.625 C4.33160156 6.62726563 3.60070312 5.62953125 2.84765625 4.6015625 C1 2 1 2 0 0 Z " fill="#AEAEAC" transform="translate(138,254)"/>
<path d="M0 0 C0.99 0.33 1.98 0.66 3 1 C3.33 1.99 3.66 2.98 4 4 C3.01 5.485 3.01 5.485 2 7 C-0.33333333 7 -2.66666667 7 -5 7 C-3.35 4.69 -1.7 2.38 0 0 Z " fill="#E0DFDE" transform="translate(132,216)"/>
<path d="M0 0 C-1 3 -1 3 -3.5625 4.6875 C-7.73482797 6.28057068 -10.57006738 6.22913445 -15 6 C-14.67 5.34 -14.34 4.68 -14 4 C-12.9275 3.855625 -11.855 3.71125 -10.75 3.5625 C-6.78536891 2.96780534 -3.74747307 0 0 0 Z " fill="#AAA8A8" transform="translate(287,264)"/>
<path d="M0 0 C1.051875 0.433125 1.051875 0.433125 2.125 0.875 C5.05452503 2.02133588 8.00921653 3.02625654 11 4 C11.33 3.01 11.66 2.02 12 1 C12.66 1 13.32 1 14 1 C13.34 2.65 12.68 4.3 12 6 C7.18706269 6.56622792 4.75523546 4.90177285 1 2 C0.67 1.34 0.34 0.68 0 0 Z " fill="#BBB9BB" transform="translate(242,241)"/>
<path d="M0 0 C0.66 0 1.32 0 2 0 C3.20628008 2.33214148 4.1654738 4.49642139 5 7 C4.67 7.66 4.34 8.32 4 9 C2.35 9 0.7 9 -1 9 C-0.67 6.03 -0.34 3.06 0 0 Z " fill="#9F9E9E" transform="translate(210,247)"/>
<path d="M0 0 C0.33 2.64 0.66 5.28 1 8 C-0.32 8.33 -1.64 8.66 -3 9 C-3 6.36 -3 3.72 -3 1 C-1 0 -1 0 0 0 Z " fill="#989799" transform="translate(238,298)"/>
<path d="M0 0 C2.31 0.33 4.62 0.66 7 1 C7 1.99 7 2.98 7 4 C5.02 4.33 3.04 4.66 1 5 C1 4.34 1 3.68 1 3 C0.34 3 -0.32 3 -1 3 C-0.67 2.01 -0.34 1.02 0 0 Z " fill="#A3A0A3" transform="translate(137,295)"/>
<path d="M0 0 C0.99 0 1.98 0 3 0 C3 0.66 3 1.32 3 2 C3.66 2 4.32 2 5 2 C5 2.66 5 3.32 5 4 C2.35261084 5.4606285 1.10551666 6 -2 6 C-2 4.68 -2 3.36 -2 2 C-1.34 2 -0.68 2 0 2 C0 1.34 0 0.68 0 0 Z " fill="#B4B1B4" transform="translate(246,293)"/>
<path d="M0 0 C0.66 0 1.32 0 2 0 C2 0.66 2 1.32 2 2 C1.34 2 0.68 2 0 2 C0 2.99 0 3.98 0 5 C-1.62935241 6.37868281 -3.29749607 7.71274093 -5 9 C-5.33 9.66 -5.66 10.32 -6 11 C-6.99 10.67 -7.98 10.34 -9 10 C-7.625 8 -7.625 8 -6 6 C-5.34 6 -4.68 6 -4 6 C-3.71125 5.38125 -3.4225 4.7625 -3.125 4.125 C-2 2 -2 2 0 0 Z " fill="#7B787A" transform="translate(269,236)"/>
<path d="M0 0 C0.33 0 0.66 0 1 0 C3.48811014 9.99687109 3.48811014 9.99687109 3 15 C2.34 15.66 1.68 16.32 1 17 C-0.13480527 13.39006828 -0.10015767 10.0157673 -0.0625 6.25 C-0.05347656 5.07953125 -0.04445313 3.9090625 -0.03515625 2.703125 C-0.02355469 1.81109375 -0.01195313 0.9190625 0 0 Z " fill="#BFBFBF" transform="translate(102,249)"/>
<path d="M0 0 C0 3 0 3 -1 5 C-1.22622081 6.70363822 -1.40888473 8.41328701 -1.5625 10.125 C-1.68818359 11.49011719 -1.68818359 11.49011719 -1.81640625 12.8828125 C-1.87699219 13.58148438 -1.93757813 14.28015625 -2 15 C-3.82695589 11.91039891 -4.22295727 9.93229631 -3.8125 6.375 C-3.73644531 5.59898437 -3.66039062 4.82296875 -3.58203125 4.0234375 C-3 2 -3 2 0 0 Z " fill="#9B9A99" transform="translate(347,243)"/>
<path d="M0 0 C1.67542976 0.28604898 3.34385343 0.61781233 5 1 C4.67 3.31 4.34 5.62 4 8 C3.67 7.01 3.34 6.02 3 5 C2.01 5 1.02 5 0 5 C-0.5625 3.0625 -0.5625 3.0625 -1 1 C-0.67 0.67 -0.34 0.34 0 0 Z " fill="#C7C7C7" transform="translate(284,291)"/>
<path d="M0 0 C0.33 1.32 0.66 2.64 1 4 C0.34 4 -0.32 4 -1 4 C-1.061875 4.5775 -1.12375 5.155 -1.1875 5.75 C-2.32027301 8.88690987 -4.34197595 10.09167504 -7 12 C-7 8.19654123 -5.86213669 7.22298985 -3.5 4.3125 C-2.8503125 3.50425781 -2.200625 2.69601562 -1.53125 1.86328125 C-1.0259375 1.24839844 -0.520625 0.63351562 0 0 Z " fill="#CDCBCE" transform="translate(248,258)"/>
<path d="M0 0 C-1.44077046 3.36179774 -3.24750021 5.59156268 -6 8 C-6.66 8 -7.32 8 -8 8 C-6.52980132 2.36423841 -6.52980132 2.36423841 -4 0.625 C-2 0 -2 0 0 0 Z " fill="#BAB8BB" transform="translate(254,258)"/>
<path d="M0 0 C0.99 0.33 1.98 0.66 3 1 C2.175 1.598125 1.35 2.19625 0.5 2.8125 C-0.7375 3.8953125 -0.7375 3.8953125 -2 5 C-2 5.99 -2 6.98 -2 8 C-3.32 8.33 -4.64 8.66 -6 9 C-5.70381606 5.44579276 -5.19662957 4.19662957 -2.625 1.625 C-1.325625 0.820625 -1.325625 0.820625 0 0 Z " fill="#E4E1E2" transform="translate(246,215)"/>
<path d="M0 0 C0.66 0 1.32 0 2 0 C2 0.99 2 1.98 2 3 C2.99 3 3.98 3 5 3 C5.33 2.34 5.66 1.68 6 1 C5.67 2.32 5.34 3.64 5 5 C4.34 5 3.68 5 3 5 C2.34 6.65 1.68 8.3 1 10 C0.34 10 -0.32 10 -1 10 C-0.73958333 7.98177083 -0.47916667 5.96354167 -0.21875 3.9453125 C0.0372485 1.99501656 0.0372485 1.99501656 0 0 Z " fill="#D1CFD4" transform="translate(282,217)"/>
<path d="M0 0 C0.99 0.33 1.98 0.66 3 1 C0.36 3.64 -2.28 6.28 -5 9 C-5.66 8.34 -6.32 7.68 -7 7 C-4.69 4.69 -2.38 2.38 0 0 Z " fill="#E5E5E4" transform="translate(159,212)"/>
<path d="M0 0 C1.21236328 0.01353516 1.21236328 0.01353516 2.44921875 0.02734375 C3.37154297 0.04474609 3.37154297 0.04474609 4.3125 0.0625 C3.9825 0.7225 3.6525 1.3825 3.3125 2.0625 C0.80859375 2.4765625 0.80859375 2.4765625 -2.25 2.6875 C-3.26191406 2.76226562 -4.27382812 2.83703125 -5.31640625 2.9140625 C-6.09886719 2.96304688 -6.88132813 3.01203125 -7.6875 3.0625 C-7.6875 2.4025 -7.6875 1.7425 -7.6875 1.0625 C-4.80538698 0.10179566 -2.98899956 -0.04331883 0 0 Z " fill="#DCDBDC" transform="translate(198.6875,209.9375)"/>
<path d="M0 0 C0.66 0.66 1.32 1.32 2 2 C1.34 2.66 0.68 3.32 0 4 C-3.0390625 3.9765625 -3.0390625 3.9765625 -6.625 3.625 C-7.81351563 3.51414063 -9.00203125 3.40328125 -10.2265625 3.2890625 C-11.14179688 3.19367188 -12.05703125 3.09828125 -13 3 C-9.1914245 0.86082213 -6.35642791 0.91932541 -2 1 C-1.34 0.67 -0.68 0.34 0 0 Z " fill="#CFCCCD" transform="translate(168,197)"/>
<path d="M0 0 C1.32 0.33 2.64 0.66 4 1 C4.33 1.99 4.66 2.98 5 4 C5.66 4.66 6.32 5.32 7 6 C6.34 6.66 5.68 7.32 5 8 C4.67 7.34 4.34 6.68 4 6 C3.34 6.66 2.68 7.32 2 8 C1.34 5.36 0.68 2.72 0 0 Z " fill="#A3A0A2" transform="translate(317,296)"/>
<path d="M0 0 C0.66 0.33 1.32 0.66 2 1 C2 1.99 2 2.98 2 4 C-0.64 4 -3.28 4 -6 4 C-6.33 4.66 -6.66 5.32 -7 6 C-7 4.68 -7 3.36 -7 2 C-4.69 2 -2.38 2 0 2 C0 1.34 0 0.68 0 0 Z " fill="#6C676A" transform="translate(199,298)"/>
<path d="M0 0 C-0.99 0.495 -0.99 0.495 -2 1 C-2.33 1.99 -2.66 2.98 -3 4 C-3.99 4 -4.98 4 -6 4 C-6 3.34 -6 2.68 -6 2 C-6.99 1.67 -7.98 1.34 -9 1 C-5.64919071 -1.10976881 -3.77897651 -1.0497157 0 0 Z " fill="#BBB8BB" transform="translate(346,296)"/>
<path d="M0 0 C0.99 0 1.98 0 3 0 C3 0.66 3 1.32 3 2 C4.32 2.66 5.64 3.32 7 4 C6.67 4.66 6.34 5.32 6 6 C5.34 6 4.68 6 4 6 C4 5.01 4 4.02 4 3 C0.9254644 3.7763932 0.9254644 3.7763932 -1 6 C-0.67 4.02 -0.34 2.04 0 0 Z " fill="#B6B6B7" transform="translate(171,293)"/>
<path d="M0 0 C0.66 0 1.32 0 2 0 C2 1.32 2 2.64 2 4 C1.34 4 0.68 4 0 4 C0 6.97 0 9.94 0 13 C0.66 13.33 1.32 13.66 2 14 C1.01 14 0.02 14 -1 14 C-1.02685938 11.85423363 -1.04633088 9.70837355 -1.0625 7.5625 C-1.07410156 6.36753906 -1.08570312 5.17257812 -1.09765625 3.94140625 C-1 1 -1 1 0 0 Z " fill="#B9B7B9" transform="translate(112,293)"/>
<path d="M0 0 C0.33 0.66 0.66 1.32 1 2 C-2.625 6.875 -2.625 6.875 -6 8 C-6 7.01 -6 6.02 -6 5 C-5.34 5 -4.68 5 -4 5 C-3.71125 4.360625 -3.4225 3.72125 -3.125 3.0625 C-2 1 -2 1 0 0 Z " fill="#C7BEC7" transform="translate(256,248)"/>
<path d="M0 0 C0.66 0.33 1.32 0.66 2 1 C1.01 2.98 0.02 4.96 -1 7 C-2.32 7 -3.64 7 -5 7 C-3.75023244 3.34683329 -3.32901247 2.21934164 0 0 Z " fill="#626260" transform="translate(352,240)"/>
<path d="M0 0 C0.99 0.495 0.99 0.495 2 1 C2 1.66 2 2.32 2 3 C3.32 3 4.64 3 6 3 C6 3.99 6 4.98 6 6 C5.01 6.33 4.02 6.66 3 7 C2.01 6.34 1.02 5.68 0 5 C-0.1875 2.375 -0.1875 2.375 0 0 Z " fill="#B1AEB0" transform="translate(389,301)"/>
<path d="M0 0 C0 0.66 0 1.32 0 2 C-1.89353366 3.89353366 -3.84526801 5.4198632 -6 7 C-5.625 4.0625 -5.625 4.0625 -5 1 C-3 0 -3 0 0 0 Z " fill="#CECDCC" transform="translate(152,199)"/>
<path d="M0 0 C1.32 0.99 2.64 1.98 4 3 C2.6875 4.5 2.6875 4.5 1 6 C0.01 6 -0.98 6 -2 6 C-2 4.68 -2 3.36 -2 2 C-1.34 2 -0.68 2 0 2 C0 1.34 0 0.68 0 0 Z " fill="#E5E0E4" transform="translate(319,175)"/>
<path d="M0 0 C0.33 1.32 0.66 2.64 1 4 C-0.65 4.33 -2.3 4.66 -4 5 C-4 3.68 -4 2.36 -4 1 C-2.68 0.67 -1.36 0.34 0 0 Z " fill="#999399" transform="translate(321,306)"/>
<path d="M0 0 C0.66 0 1.32 0 2 0 C2 2.31 2 4.62 2 7 C1.01 7 0.02 7 -1 7 C-1.04254356 5.00045254 -1.04080783 2.99958364 -1 1 C-0.67 0.67 -0.34 0.34 0 0 Z " fill="#777275" transform="translate(221,299)"/>
<path d="M0 0 C0.33 0 0.66 0 1 0 C1 1.98 1 3.96 1 6 C2.32 6 3.64 6 5 6 C5 6.99 5 7.98 5 9 C3.35 8.67 1.7 8.34 0 8 C0 5.36 0 2.72 0 0 Z " fill="#767477" transform="translate(172,298)"/>
<path d="M0 0 C0 0.66 0 1.32 0 2 C-0.66 2 -1.32 2 -2 2 C-2.66 3.65 -3.32 5.3 -4 7 C-4.66 7 -5.32 7 -6 7 C-6.33 7.66 -6.66 8.32 -7 9 C-6.53149863 4.78348764 -4.94559315 0 0 0 Z " fill="#CAC7C7" transform="translate(269,241)"/>
<path d="M0 0 C0.268125 0.598125 0.53625 1.19625 0.8125 1.8125 C1.98493467 3.97224808 3.19369282 5.35790256 5 7 C4.236875 6.835 3.47375 6.67 2.6875 6.5 C-0.03596236 5.90854604 -0.03596236 5.90854604 -3 6 C-2.01 4.02 -1.02 2.04 0 0 Z " fill="#BEBABE" transform="translate(124,301)"/>
<path d="M0 0 C0.66 0 1.32 0 2 0 C3.10844919 3.32534757 2.84454356 5.62182575 2 9 C1.34 9 0.68 9 0 9 C0 6.03 0 3.06 0 0 Z " fill="#7F7B80" transform="translate(187,298)"/>
<path d="M0 0 C0.33 0.66 0.66 1.32 1 2 C-0.25 4.5625 -0.25 4.5625 -2 7 C-2.99 7.33 -3.98 7.66 -5 8 C-4.67 6.68 -4.34 5.36 -4 4 C-3.34 4 -2.68 4 -2 4 C-1.34 2.68 -0.68 1.36 0 0 Z " fill="#C8C7CB" transform="translate(255,262)"/>
<path d="M0 0 C0.66 1.32 1.32 2.64 2 4 C0.35 4.66 -1.3 5.32 -3 6 C-3 4.68 -3 3.36 -3 2 C-2.01 1.34 -1.02 0.68 0 0 Z " fill="#9F9C9F" transform="translate(253,254)"/>
<path d="M0 0 C4.75 0.875 4.75 0.875 7 2 C6.34 3.65 5.68 5.3 5 7 C4.67 7 4.34 7 4 7 C4 5.35 4 3.7 4 2 C2.68 2 1.36 2 0 2 C0 1.34 0 0.68 0 0 Z " fill="#C8C6C9" transform="translate(242,251)"/>
<path d="M0 0 C0 3.3 0 6.6 0 10 C-0.33 10 -0.66 10 -1 10 C-1.33 7.36 -1.66 4.72 -2 2 C-3.65 2 -5.3 2 -7 2 C-7 1.67 -7 1.34 -7 1 C-2.25 0 -2.25 0 0 0 Z " fill="#DCDCDC" transform="translate(340,211)"/>
<path d="M0 0 C0.33 1.32 0.66 2.64 1 4 C-1.97 6.475 -1.97 6.475 -5 9 C-5.66 8.67 -6.32 8.34 -7 8 C-5.71937515 6.2925002 -4.38232443 4.62626404 -3 3 C-2.34 3 -1.68 3 -1 3 C-0.67 2.01 -0.34 1.02 0 0 Z " fill="#E6E5E5" transform="translate(146,200)"/>
<path d="M0 0 C0.66 0 1.32 0 2 0 C2.33 2.64 2.66 5.28 3 8 C2.01 8 1.02 8 0 8 C0 5.36 0 2.72 0 0 Z " fill="#7A7979" transform="translate(330,298)"/>
<path d="M0 0 C0.99 0 1.98 0 3 0 C2.67 1.98 2.34 3.96 2 6 C1.01 5.67 0.02 5.34 -1 5 C-0.67 3.35 -0.34 1.7 0 0 Z " fill="#A1A0A1" transform="translate(325,296)"/>
<path d="M0 0 C1.65 0 3.3 0 5 0 C3.68 0.33 2.36 0.66 1 1 C1 1.66 1 2.32 1 3 C2.32 3 3.64 3 5 3 C4.67 3.66 4.34 4.32 4 5 C1.03 4.505 1.03 4.505 -2 4 C-1.34 2.68 -0.68 1.36 0 0 Z " fill="#B5B1B4" transform="translate(155,295)"/>
<path d="M0 0 C0.66 0.33 1.32 0.66 2 1 C2 1.66 2 2.32 2 3 C2.66 3.33 3.32 3.66 4 4 C3.01 5.485 3.01 5.485 2 7 C1.34 7 0.68 7 0 7 C-1.125 2.25 -1.125 2.25 0 0 Z " fill="#7D7D7B" transform="translate(146,256)"/>
<path d="M0 0 C0.99 0 1.98 0 3 0 C3 0.66 3 1.32 3 2 C4.65 2.33 6.3 2.66 8 3 C7.67 3.99 7.34 4.98 7 6 C5.68 5.67 4.36 5.34 3 5 C2.87625 4.360625 2.7525 3.72125 2.625 3.0625 C2.315625 2.0415625 2.315625 2.0415625 2 1 C1.34 0.67 0.68 0.34 0 0 Z " fill="#8D8C8A" transform="translate(134,249)"/>
<path d="M0 0 C2.5 0.3125 2.5 0.3125 5 1 C5.33 1.66 5.66 2.32 6 3 C4.35 3 2.7 3 1 3 C0.67 3.66 0.34 4.32 0 5 C-0.5625 3.0625 -0.5625 3.0625 -1 1 C-0.67 0.67 -0.34 0.34 0 0 Z " fill="#DAD0D4" transform="translate(276,234)"/>
<path d="M0 0 C0.66 0 1.32 0 2 0 C2 2.31 2 4.62 2 7 C1.34 7 0.68 7 0 7 C-0.38133299 5.0085944 -0.71325582 3.00720923 -1 1 C-0.67 0.67 -0.34 0.34 0 0 Z " fill="#7E797D" transform="translate(247,298)"/>
<path d="M0 0 C2 3 2 3 2 7 C2.66 7.33 3.32 7.66 4 8 C2.68 7.67 1.36 7.34 0 7 C-0.93423645 3.98968256 -1.04449911 3.13349732 0 0 Z " fill="#BAB9BA" transform="translate(145,299)"/>
<path d="M0 0 C1.98 0 3.96 0 6 0 C6.33 1.65 6.66 3.3 7 5 C6.01 5 5.02 5 4 5 C3.67 4.01 3.34 3.02 3 2 C2.01 2 1.02 2 0 2 C0 1.34 0 0.68 0 0 Z " fill="#979196" transform="translate(126,302)"/>
<path d="M0 0 C0.66 0.33 1.32 0.66 2 1 C2 1.99 2 2.98 2 4 C1.01 4 0.02 4 -1 4 C-1.33 4.66 -1.66 5.32 -2 6 C-2.33 4.35 -2.66 2.7 -3 1 C-2.01 0.67 -1.02 0.34 0 0 Z " fill="#A2A0A2" transform="translate(366,295)"/>
<path d="M0 0 C0.66 1.32 1.32 2.64 2 4 C1.34 4.66 0.68 5.32 0 6 C-0.99 6 -1.98 6 -3 6 C-2.42655063 3.13275314 -2.1385485 2.1385485 0 0 Z " fill="#D9D7D9" transform="translate(231,280)"/>
<path d="M0 0 C1.33332095 2.6666419 0.67102033 4.16680303 0 7 C-0.99 6.34 -1.98 5.68 -3 5 C-3 3.68 -3 2.36 -3 1 C-2.01 0.67 -1.02 0.34 0 0 Z " fill="#D6D4D5" transform="translate(181,215)"/>
</svg>
